<svg id="svg" version="1.1" xmlns="http://www.w3.org/2000/svg" xmlns:xlink="http://www.w3.org/1999/xlink" width="400" height="400" viewBox="0, 0, 400,400"><g id="svgg"><path id="path0" d="M148.400 90.331 C 148.400 90.513,148.940 90.582,149.600 90.485 C 150.260 90.388,150.800 90.240,150.800 90.155 C 150.800 90.070,150.260 90.000,149.600 90.000 C 148.940 90.000,148.400 90.149,148.400 90.331 M253.345 90.278 C 253.777 90.711,254.800 90.771,254.800 90.365 C 254.800 90.164,254.410 90.000,253.933 90.000 C 253.457 90.000,253.192 90.125,253.345 90.278 M275.067 100.267 C 274.920 100.413,274.803 100.728,274.806 100.967 C 274.809 101.205,274.981 101.132,275.188 100.805 C 275.508 100.300,275.690 100.345,276.398 101.105 C 276.856 101.597,277.346 102.000,277.485 102.000 C 277.625 102.000,277.317 101.550,276.800 101.000 C 275.818 99.954,275.509 99.824,275.067 100.267 M276.314 102.224 C 276.167 102.457,276.749 103.447,277.606 104.424 C 278.464 105.401,279.174 106.351,279.183 106.536 C 279.204 106.946,280.866 108.368,281.346 108.387 C 281.536 108.394,281.370 107.905,280.977 107.300 C 279.700 105.333,277.811 103.215,277.329 103.207 C 277.070 103.203,276.796 102.885,276.720 102.500 C 276.638 102.085,276.473 101.972,276.314 102.224 M282.800 110.413 C 282.800 110.673,283.058 110.786,283.374 110.665 C 283.690 110.544,284.036 110.619,284.144 110.832 C 284.252 111.046,284.294 110.990,284.237 110.710 C 284.105 110.056,282.800 109.787,282.800 110.413 M161.800 112.604 C 151.191 114.562,141.635 121.953,137.013 131.774 C 134.086 137.993,133.594 141.815,133.597 158.284 C 133.601 173.724,132.920 172.400,140.853 172.400 C 148.177 172.400,147.595 173.449,147.618 160.211 C 147.648 142.454,149.495 137.222,157.908 131.074 C 162.338 127.836,165.864 127.231,180.411 127.214 C 195.807 127.196,194.402 127.934,194.394 119.877 C 194.387 112.984,194.338 112.834,191.949 112.373 C 189.099 111.822,165.034 112.006,161.800 112.604 M206.300 112.409 C 205.681 112.790,205.600 113.572,205.600 119.176 C 205.600 128.045,203.942 127.146,220.600 127.309 C 238.112 127.481,239.820 127.908,245.596 133.568 C 251.453 139.306,252.914 144.266,252.617 157.400 C 252.275 172.532,252.206 172.400,260.373 172.400 C 265.769 172.400,266.001 172.366,266.500 171.500 C 267.343 170.035,266.782 141.484,265.842 138.031 C 262.482 125.687,251.949 115.930,238.800 112.979 C 235.106 112.150,207.508 111.666,206.300 112.409 M196.200 137.797 C 195.980 137.870,195.319 138.036,194.732 138.165 C 192.837 138.581,179.456 152.505,177.465 156.132 C 173.229 163.848,183.869 169.894,190.074 163.297 C 201.963 150.656,200.056 151.864,207.300 152.383 C 213.747 152.846,221.184 152.915,224.290 152.542 C 226.814 152.239,227.164 151.581,226.177 148.994 C 225.030 145.991,225.870 143.043,228.084 142.305 C 228.797 142.068,227.738 139.783,226.556 139.008 C 224.860 137.896,198.995 136.864,196.200 137.797 M289.701 139.000 C 289.705 139.880,289.787 140.193,289.883 139.695 C 289.979 139.198,289.975 138.478,289.875 138.095 C 289.775 137.713,289.696 138.120,289.701 139.000 M204.534 160.533 C 202.135 162.731,203.756 165.120,215.555 176.775 C 219.021 180.199,223.177 184.530,224.791 186.400 C 235.862 199.230,240.327 201.423,243.150 195.417 C 245.445 190.536,243.409 186.995,231.407 174.992 C 228.763 172.348,226.082 169.558,225.449 168.792 C 223.463 166.390,220.669 163.479,218.259 161.300 L 215.936 159.200 210.962 159.200 L 205.988 159.200 204.534 160.533 M197.130 173.702 C 190.896 177.511,191.757 180.115,202.971 191.362 C 207.607 196.011,213.470 201.993,216.000 204.655 C 223.042 212.065,225.842 213.063,229.453 209.453 C 233.451 205.454,231.227 201.497,217.879 188.871 C 214.316 185.500,210.805 182.080,210.078 181.271 C 202.803 173.178,200.343 171.739,197.130 173.702 M172.200 176.667 C 170.348 177.070,169.132 178.014,164.075 182.976 C 157.303 189.620,156.331 191.927,158.457 196.318 C 159.759 199.008,163.663 200.106,166.639 198.620 C 168.869 197.506,178.618 187.183,179.391 185.117 C 180.662 181.720,178.695 177.764,175.261 176.810 C 173.742 176.388,173.526 176.378,172.200 176.667 M134.300 183.632 C 133.309 184.209,133.248 210.619,134.223 216.679 C 136.652 231.777,148.029 243.325,163.694 246.593 C 167.658 247.420,193.261 247.490,193.937 246.676 C 194.196 246.363,194.412 243.759,194.472 240.229 C 194.607 232.177,195.603 232.800,182.585 232.800 C 164.620 232.800,157.869 230.590,152.273 222.877 C 147.815 216.734,147.485 214.946,147.434 196.669 C 147.402 184.945,147.362 184.309,146.624 183.769 C 145.691 183.086,135.433 182.972,134.300 183.632 M253.214 183.974 C 252.957 184.454,252.800 188.991,252.800 195.945 C 252.800 216.507,251.187 221.430,242.240 228.187 C 237.431 231.819,232.068 232.800,217.033 232.800 C 204.552 232.800,205.600 232.153,205.600 239.856 C 205.600 247.889,204.295 247.200,219.516 247.199 C 235.376 247.197,238.064 246.782,246.200 243.079 C 251.535 240.651,256.505 236.841,257.980 234.050 C 258.256 233.527,259.091 232.302,259.836 231.326 C 262.751 227.507,264.229 224.492,265.879 219.000 C 266.991 215.299,267.131 185.131,266.041 184.041 C 264.801 182.801,253.872 182.744,253.214 183.974 M187.372 188.452 C 183.416 189.343,170.780 202.725,170.809 205.994 C 170.837 209.280,173.602 211.996,176.920 211.999 C 179.590 212.001,180.802 211.253,185.393 206.773 C 187.597 204.622,189.760 202.531,190.200 202.127 C 194.047 198.597,195.200 196.883,195.200 194.696 C 195.200 192.212,193.362 189.561,190.937 188.548 C 189.482 187.940,189.630 187.944,187.372 188.452 M200.663 202.107 C 198.723 202.501,193.379 206.980,187.123 213.457 C 181.539 219.237,184.958 226.988,192.268 225.120 C 194.273 224.608,203.402 216.209,206.699 211.844 C 210.636 206.631,207.032 200.816,200.663 202.107 M289.714 212.200 C 289.717 213.300,289.795 213.703,289.887 213.095 C 289.979 212.486,289.977 211.586,289.882 211.095 C 289.787 210.603,289.711 211.100,289.714 212.200 M212.565 214.388 C 211.390 214.864,206.800 220.043,206.800 220.893 C 206.800 225.783,216.714 226.206,218.332 221.385 C 219.941 216.589,216.737 212.701,212.565 214.388 " stroke="none" fill="#f3f8f9" fill-rule="evenodd"></path><path id="path1" d="M147.533 90.378 C 147.460 90.585,146.320 90.792,145.000 90.836 C 143.680 90.880,142.420 91.053,142.200 91.221 C 141.980 91.389,141.170 91.587,140.400 91.663 C 139.630 91.738,138.910 91.892,138.800 92.004 C 138.690 92.117,137.610 92.632,136.400 93.150 C 135.190 93.668,133.887 94.251,133.505 94.446 C 133.123 94.641,132.538 94.800,132.205 94.800 C 131.872 94.800,131.600 94.980,131.600 95.200 C 131.600 95.420,131.322 95.600,130.983 95.600 C 130.644 95.600,130.011 95.931,129.577 96.336 C 129.142 96.741,128.295 97.326,127.695 97.636 C 126.314 98.350,122.000 102.405,122.000 102.989 C 122.000 103.230,121.460 103.746,120.800 104.136 C 120.140 104.526,119.600 105.105,119.600 105.423 C 119.600 105.740,119.450 106.000,119.268 106.000 C 119.085 106.000,118.698 106.444,118.407 106.986 C 118.117 107.529,117.764 107.901,117.623 107.814 C 117.482 107.727,117.343 107.965,117.314 108.344 C 117.272 108.899,117.527 109.001,118.631 108.872 C 120.149 108.695,120.495 109.447,119.400 110.543 C 118.640 111.303,118.618 112.800,119.367 112.800 C 119.678 112.800,119.996 112.612,120.072 112.383 C 120.149 112.153,120.608 112.334,121.092 112.785 C 121.586 113.245,121.872 113.868,121.744 114.203 C 121.599 114.580,121.752 114.800,122.157 114.800 C 122.511 114.800,122.800 114.639,122.800 114.443 C 122.800 113.759,124.070 113.604,124.902 114.186 C 125.646 114.707,125.664 114.800,125.069 115.029 C 124.103 115.400,124.246 115.961,125.420 116.408 C 126.001 116.629,126.618 117.307,126.854 117.984 C 127.253 119.128,127.305 119.149,128.217 118.552 C 128.772 118.189,129.379 118.065,129.682 118.255 C 130.398 118.703,131.344 118.678,131.683 118.203 C 131.864 117.950,132.146 117.986,132.463 118.303 C 132.737 118.577,133.269 118.800,133.647 118.800 C 134.024 118.800,134.411 119.025,134.507 119.300 C 134.602 119.575,134.803 119.255,134.952 118.589 C 135.647 115.496,140.559 116.196,140.043 119.314 C 140.014 119.487,139.943 119.937,139.884 120.314 C 139.825 120.691,139.652 121.200,139.499 121.444 C 139.172 121.968,139.518 122.400,140.267 122.400 C 140.574 122.400,140.814 121.934,140.832 121.300 L 140.865 120.200 141.414 121.400 C 142.208 123.132,142.176 123.241,140.230 125.521 C 138.547 127.493,135.746 132.679,136.147 133.080 C 136.251 133.184,136.865 132.125,137.511 130.728 C 141.602 121.890,151.785 114.399,162.200 112.565 C 168.920 111.381,193.189 111.908,194.043 113.255 C 194.907 114.619,194.456 125.916,193.511 126.577 C 192.844 127.044,192.782 127.200,193.262 127.200 C 193.614 127.200,194.126 126.930,194.400 126.600 C 195.010 125.866,195.600 125.822,195.600 126.511 C 195.600 126.982,196.955 128.400,197.405 128.400 C 197.512 128.400,197.600 128.189,197.600 127.931 C 197.600 127.674,197.837 127.179,198.126 126.831 C 198.742 126.092,199.443 123.179,199.815 119.813 C 200.045 117.740,200.275 117.241,201.573 116.013 C 203.854 113.854,205.200 112.822,205.200 113.230 C 205.200 113.434,205.578 113.222,206.041 112.759 C 207.171 111.629,233.571 111.805,238.800 112.979 C 249.742 115.434,259.104 122.693,263.604 132.208 C 266.411 138.144,266.516 138.905,266.797 155.400 C 267.047 170.042,267.051 170.104,267.222 161.200 C 267.317 156.250,267.336 150.516,267.265 148.457 C 267.058 142.500,266.396 143.000,274.483 143.000 C 278.287 143.000,282.858 142.844,284.639 142.654 C 288.476 142.243,288.462 142.229,287.902 146.100 C 287.482 149.008,287.425 149.053,284.499 148.815 C 283.995 148.775,283.490 149.020,283.356 149.371 C 283.016 150.256,282.152 150.152,281.443 149.141 C 280.874 148.328,280.672 148.301,277.709 148.646 C 274.691 148.998,272.400 148.685,272.400 147.923 C 272.400 147.745,272.209 147.600,271.975 147.600 C 271.741 147.600,271.606 147.983,271.675 148.451 C 271.779 149.156,271.563 149.329,270.420 149.456 C 268.898 149.627,268.343 150.188,268.498 151.400 C 268.632 152.452,271.189 152.838,275.000 152.381 C 277.283 152.107,288.382 152.218,288.638 152.517 C 288.677 152.563,288.587 154.400,288.438 156.600 C 288.252 159.349,288.313 160.885,288.633 161.512 C 288.961 162.156,288.985 162.954,288.714 164.224 C 288.503 165.214,288.454 167.143,288.605 168.512 C 288.756 169.880,288.954 183.375,289.045 198.500 C 289.144 214.942,289.359 226.000,289.580 226.000 C 289.805 226.000,289.947 208.043,289.943 180.400 C 289.939 155.320,289.815 134.800,289.668 134.800 C 289.233 134.800,289.336 132.627,289.787 132.300 C 290.061 132.101,290.027 131.888,289.686 131.668 C 289.341 131.445,289.167 130.294,289.156 128.172 C 289.147 126.432,288.981 124.818,288.788 124.585 C 288.594 124.352,288.394 123.450,288.343 122.581 C 288.292 121.711,288.013 120.626,287.723 120.168 C 287.434 119.711,287.291 119.242,287.406 119.128 C 287.520 119.013,287.350 118.410,287.028 117.788 C 286.705 117.166,286.533 116.508,286.646 116.326 C 286.759 116.144,286.581 115.891,286.251 115.764 C 285.921 115.637,285.741 115.297,285.853 115.007 C 285.964 114.718,285.862 114.362,285.627 114.217 C 285.392 114.072,285.200 113.603,285.200 113.176 C 285.200 112.749,285.065 112.421,284.900 112.447 C 283.930 112.601,283.415 112.379,283.951 112.039 C 284.612 111.620,284.203 110.800,283.334 110.800 C 282.957 110.800,282.802 110.573,282.937 110.220 C 283.085 109.833,282.967 109.715,282.580 109.863 C 282.216 110.003,282.000 109.837,282.000 109.419 C 282.000 109.053,282.180 108.864,282.400 109.000 C 282.620 109.136,282.800 108.877,282.800 108.424 C 282.800 107.951,282.539 107.600,282.187 107.600 C 281.851 107.600,281.458 107.285,281.315 106.900 C 281.172 106.515,280.728 105.909,280.328 105.553 C 279.927 105.197,279.600 104.747,279.600 104.553 C 279.599 104.359,279.149 103.677,278.600 103.038 C 278.050 102.399,277.600 102.022,277.600 102.200 C 277.600 102.378,277.147 102.001,276.592 101.362 C 275.748 100.388,275.522 100.297,275.199 100.800 C 274.967 101.160,274.810 101.210,274.806 100.924 C 274.803 100.662,274.981 100.335,275.203 100.198 C 275.666 99.912,274.718 98.800,274.012 98.800 C 273.767 98.800,273.180 98.440,272.708 98.000 C 272.236 97.560,271.613 97.200,271.325 97.200 C 271.036 97.200,270.800 97.020,270.800 96.800 C 270.800 96.580,270.536 96.400,270.214 96.400 C 269.892 96.400,269.439 96.047,269.208 95.615 C 268.977 95.183,268.544 94.923,268.245 95.038 C 267.947 95.152,267.410 94.953,267.052 94.594 C 266.693 94.236,266.400 94.046,266.400 94.173 C 266.400 94.462,262.290 92.323,261.950 91.857 C 261.813 91.669,261.579 91.710,261.431 91.949 C 261.239 92.260,260.912 92.254,260.281 91.929 C 259.797 91.680,259.101 91.332,258.736 91.156 C 258.370 90.981,256.716 90.795,255.060 90.742 C 253.403 90.689,252.120 90.530,252.207 90.389 C 252.294 90.249,252.111 90.133,251.800 90.133 C 251.489 90.133,251.328 90.283,251.441 90.467 C 251.555 90.650,251.356 90.800,251.000 90.800 C 250.644 90.800,250.461 90.625,250.593 90.411 C 250.916 89.888,162.795 89.869,161.422 90.392 C 160.761 90.643,160.341 90.628,160.167 90.346 C 160.014 90.099,159.302 90.022,158.453 90.161 C 156.734 90.442,156.734 90.442,154.300 90.149 C 153.255 90.023,152.399 90.073,152.398 90.260 C 152.396 90.447,151.496 90.618,150.398 90.640 C 149.299 90.663,148.400 90.528,148.400 90.340 C 148.400 89.877,147.699 89.907,147.533 90.378 M277.329 103.207 C 277.811 103.215,279.700 105.333,280.977 107.300 C 281.370 107.905,281.536 108.394,281.346 108.387 C 280.866 108.368,279.204 106.946,279.183 106.536 C 279.174 106.351,278.464 105.401,277.606 104.424 C 276.749 103.447,276.167 102.457,276.314 102.224 C 276.473 101.972,276.638 102.085,276.720 102.500 C 276.796 102.885,277.070 103.203,277.329 103.207 M205.354 120.000 C 205.354 122.750,205.418 123.875,205.496 122.500 C 205.574 121.125,205.574 118.875,205.496 117.500 C 205.418 116.125,205.354 117.250,205.354 120.000 M111.600 120.200 C 111.600 120.530,111.780 120.800,112.000 120.800 C 112.220 120.800,112.400 120.530,112.400 120.200 C 112.400 119.870,112.220 119.600,112.000 119.600 C 111.780 119.600,111.600 119.870,111.600 120.200 M143.612 121.178 C 142.999 122.323,142.400 122.560,142.400 121.657 C 142.400 120.942,142.855 120.518,143.714 120.432 C 143.887 120.414,143.841 120.750,143.612 121.178 M195.887 124.695 C 195.795 125.303,195.717 124.900,195.714 123.800 C 195.711 122.700,195.787 122.203,195.882 122.695 C 195.977 123.186,195.979 124.086,195.887 124.695 M138.267 122.667 C 137.781 123.153,137.990 123.579,138.600 123.345 C 138.930 123.218,139.200 122.954,139.200 122.757 C 139.200 122.338,138.649 122.284,138.267 122.667 M196.000 129.598 C 195.670 129.809,195.092 129.886,194.715 129.769 C 193.689 129.450,192.400 130.309,192.397 131.314 C 192.395 132.107,191.798 132.821,188.271 136.247 C 185.854 138.595,181.133 139.241,165.200 139.404 C 162.230 139.434,159.440 139.600,159.000 139.772 C 153.062 142.099,153.376 143.353,159.800 142.977 C 161.340 142.887,167.763 142.738,174.074 142.646 C 180.385 142.554,185.785 142.331,186.074 142.149 C 186.363 141.968,187.188 141.780,187.907 141.732 C 189.592 141.619,189.553 141.682,184.552 147.053 C 182.326 149.444,180.009 152.030,179.403 152.800 C 178.311 154.188,180.672 151.782,188.525 143.505 C 194.364 137.350,192.873 137.823,206.928 137.673 C 219.335 137.541,224.892 137.918,226.550 139.004 C 227.737 139.782,228.799 142.067,228.084 142.305 C 225.870 143.043,225.030 145.991,226.177 148.994 C 227.091 151.388,226.754 152.306,224.880 152.534 C 224.066 152.633,228.170 152.683,234.000 152.646 C 246.078 152.568,247.758 152.118,243.831 150.017 C 243.264 149.713,242.800 149.150,242.800 148.766 C 242.800 148.381,242.595 147.998,242.346 147.915 C 242.016 147.805,242.031 147.540,242.399 146.950 C 242.979 146.021,241.989 144.000,240.954 144.000 C 240.649 144.000,240.400 143.790,240.400 143.533 C 240.400 143.277,240.514 143.180,240.653 143.319 C 241.044 143.710,242.400 142.841,242.400 142.200 C 242.400 141.320,240.084 138.883,238.197 137.777 C 235.967 136.470,227.631 135.708,227.274 136.778 C 227.178 137.065,222.557 137.185,212.867 137.154 C 205.020 137.128,198.960 137.031,199.400 136.938 C 202.381 136.308,202.245 136.466,200.755 135.367 C 198.929 134.020,197.632 132.371,197.614 131.376 C 197.592 130.105,196.717 129.140,196.000 129.598 M267.082 140.500 C 266.987 140.995,266.909 140.590,266.909 139.600 C 266.909 138.610,266.987 138.205,267.082 138.700 C 267.178 139.195,267.178 140.005,267.082 140.500 M133.869 141.556 C 133.721 142.295,133.620 143.282,133.644 143.750 C 133.668 144.218,133.847 143.790,134.042 142.800 C 134.237 141.810,134.338 140.823,134.267 140.606 C 134.196 140.390,134.017 140.817,133.869 141.556 M149.381 141.637 C 149.029 142.318,148.812 142.945,148.899 143.032 C 148.986 143.119,149.356 142.562,149.722 141.795 C 150.544 140.070,150.259 139.938,149.381 141.637 M148.229 144.629 C 148.081 145.215,148.038 145.772,148.132 145.866 C 148.227 145.960,148.424 145.558,148.571 144.971 C 148.719 144.385,148.762 143.828,148.668 143.734 C 148.573 143.640,148.376 144.042,148.229 144.629 M252.528 150.800 C 252.528 152.230,252.601 152.815,252.689 152.100 C 252.778 151.385,252.778 150.215,252.689 149.500 C 252.601 148.785,252.528 149.370,252.528 150.800 M147.600 159.881 C 147.490 166.085,147.538 171.023,147.707 170.854 C 147.875 170.685,147.965 165.609,147.906 159.573 L 147.799 148.600 147.600 159.881 M208.300 152.682 C 208.795 152.778,209.605 152.778,210.100 152.682 C 210.595 152.587,210.190 152.509,209.200 152.509 C 208.210 152.509,207.805 152.587,208.300 152.682 M177.017 155.820 C 176.646 156.602,176.262 157.907,176.164 158.720 C 176.002 160.060,176.036 160.024,176.521 158.339 C 176.815 157.316,177.363 156.011,177.737 155.439 C 178.112 154.868,178.255 154.400,178.055 154.400 C 177.855 154.400,177.388 155.039,177.017 155.820 M252.528 159.200 C 252.528 160.630,252.601 161.215,252.689 160.500 C 252.778 159.785,252.778 158.615,252.689 157.900 C 252.601 157.185,252.528 157.770,252.528 159.200 M208.915 159.096 C 210.188 159.176,212.168 159.175,213.315 159.094 C 214.462 159.014,213.420 158.949,211.000 158.950 C 208.580 158.951,207.642 159.016,208.915 159.096 M203.831 160.368 C 203.215 161.010,202.777 161.685,202.856 161.868 C 202.935 162.051,203.656 161.525,204.459 160.700 C 205.261 159.875,205.700 159.200,205.434 159.200 C 205.167 159.200,204.446 159.726,203.831 160.368 M218.039 161.100 C 220.358 163.173,223.655 166.596,225.456 168.799 C 226.929 170.601,228.301 172.000,228.596 172.000 C 229.055 172.000,220.377 162.455,218.455 160.846 C 215.746 158.578,215.432 158.769,218.039 161.100 M252.493 168.000 C 252.493 168.770,252.575 169.085,252.676 168.700 C 252.776 168.315,252.776 167.685,252.676 167.300 C 252.575 166.915,252.493 167.230,252.493 168.000 M266.503 171.584 C 266.062 172.290,265.481 172.389,261.104 172.501 L 256.200 172.627 261.000 172.701 C 265.804 172.775,267.520 172.361,267.140 171.221 C 267.062 170.985,266.775 171.148,266.503 171.584 M140.313 172.695 C 141.476 172.776,143.276 172.776,144.313 172.693 C 145.351 172.611,144.400 172.545,142.200 172.546 C 140.000 172.547,139.151 172.614,140.313 172.695 M197.121 173.216 C 195.738 173.947,193.600 176.254,193.600 177.015 C 193.600 177.202,194.057 176.736,194.616 175.978 C 197.871 171.567,200.886 171.895,206.338 177.255 L 208.927 179.800 206.979 177.491 C 203.102 172.894,200.153 171.615,197.121 173.216 M229.800 173.416 C 230.460 174.026,231.988 175.441,233.196 176.562 C 234.860 178.105,235.054 178.220,233.996 177.036 C 232.289 175.123,230.117 173.119,229.247 172.654 C 228.891 172.464,229.140 172.807,229.800 173.416 M172.249 176.351 C 171.774 176.538,172.243 176.646,173.525 176.646 C 174.640 176.646,175.462 176.501,175.352 176.323 C 175.110 175.930,173.279 175.947,172.249 176.351 M177.444 178.093 C 178.254 178.803,179.153 179.928,179.443 180.593 C 179.732 181.257,179.976 181.566,179.984 181.280 C 180.013 180.325,178.825 178.472,177.644 177.632 C 175.889 176.381,175.780 176.631,177.444 178.093 M163.594 183.100 L 158.200 188.600 163.700 183.206 C 168.809 178.194,169.381 177.600,169.094 177.600 C 169.036 177.600,166.561 180.075,163.594 183.100 M193.254 178.067 C 193.225 178.434,193.084 179.064,192.941 179.467 C 192.741 180.033,192.795 180.096,193.175 179.746 C 193.446 179.497,193.587 178.867,193.488 178.346 C 193.390 177.826,193.284 177.700,193.254 178.067 M237.000 180.800 C 238.083 181.900,239.060 182.800,239.170 182.800 C 239.280 182.800,238.483 181.900,237.400 180.800 C 236.317 179.700,235.340 178.800,235.230 178.800 C 235.120 178.800,235.917 179.700,237.000 180.800 M211.600 183.000 C 212.346 183.770,213.047 184.400,213.157 184.400 C 213.267 184.400,212.746 183.770,212.000 183.000 C 211.254 182.230,210.553 181.600,210.443 181.600 C 210.333 181.600,210.854 182.230,211.600 183.000 M141.111 183.093 C 142.051 183.178,143.491 183.177,144.311 183.091 C 145.130 183.005,144.360 182.936,142.600 182.937 C 140.840 182.939,140.170 183.009,141.111 183.093 M259.682 183.164 C 267.202 183.466,266.553 182.561,266.815 193.119 L 267.031 201.800 267.115 192.949 C 267.219 182.072,267.904 183.012,259.840 182.964 L 253.800 182.928 259.682 183.164 M239.200 183.325 C 239.200 183.394,239.778 183.979,240.485 184.625 C 241.623 185.666,241.378 185.030,240.129 183.702 C 239.690 183.235,239.200 183.036,239.200 183.325 M147.506 190.536 C 147.676 200.203,147.846 201.218,147.920 193.000 C 147.957 188.820,147.856 185.191,147.694 184.936 C 147.532 184.681,147.448 187.201,147.506 190.536 M252.509 186.400 C 252.509 187.390,252.587 187.795,252.682 187.300 C 252.778 186.805,252.778 185.995,252.682 185.500 C 252.587 185.005,252.509 185.410,252.509 186.400 M242.700 187.979 C 243.305 189.067,243.856 189.800,243.924 189.607 C 244.041 189.276,242.063 186.000,241.747 186.000 C 241.666 186.000,242.095 186.890,242.700 187.979 M186.400 188.406 C 185.978 188.682,186.215 188.723,187.200 188.542 C 188.925 188.225,189.251 187.998,187.967 188.006 C 187.435 188.009,186.730 188.189,186.400 188.406 M182.400 191.268 C 181.352 192.220,181.101 192.565,181.800 192.095 C 182.904 191.351,184.738 189.577,184.362 189.617 C 184.273 189.626,183.390 190.370,182.400 191.268 M252.537 194.200 C 252.539 195.960,252.609 196.630,252.693 195.689 C 252.778 194.749,252.777 193.309,252.691 192.489 C 252.605 191.670,252.536 192.440,252.537 194.200 M223.200 193.800 C 223.946 194.570,224.647 195.200,224.757 195.200 C 224.867 195.200,224.346 194.570,223.600 193.800 C 222.854 193.030,222.153 192.400,222.043 192.400 C 221.933 192.400,222.454 193.030,223.200 193.800 M195.301 194.600 C 195.305 195.480,195.387 195.793,195.483 195.295 C 195.579 194.798,195.575 194.078,195.475 193.695 C 195.375 193.313,195.296 193.720,195.301 194.600 M176.185 197.700 L 174.200 199.800 176.300 197.815 C 177.455 196.723,178.400 195.778,178.400 195.715 C 178.400 195.417,178.029 195.749,176.185 197.700 M252.555 203.400 C 252.556 206.260,252.620 207.378,252.697 205.883 C 252.774 204.389,252.774 202.049,252.696 200.683 C 252.618 199.318,252.555 200.540,252.555 203.400 M195.200 205.400 C 194.228 206.390,193.523 207.200,193.633 207.200 C 193.743 207.200,194.628 206.390,195.600 205.400 C 196.572 204.410,197.277 203.600,197.167 203.600 C 197.057 203.600,196.172 204.410,195.200 205.400 M147.309 206.400 C 147.309 207.390,147.387 207.795,147.482 207.300 C 147.578 206.805,147.578 205.995,147.482 205.500 C 147.387 205.005,147.309 205.410,147.309 206.400 M210.181 216.100 L 208.600 217.800 210.300 216.219 C 211.235 215.349,212.000 214.584,212.000 214.519 C 212.000 214.216,211.652 214.519,210.181 216.100 M184.093 219.200 C 184.093 219.970,184.175 220.285,184.276 219.900 C 184.376 219.515,184.376 218.885,184.276 218.500 C 184.175 218.115,184.093 218.430,184.093 219.200 M172.291 232.689 C 173.001 232.777,174.261 232.779,175.091 232.692 C 175.921 232.605,175.340 232.533,173.800 232.531 C 172.260 232.529,171.581 232.600,172.291 232.689 M226.305 232.683 C 226.802 232.779,227.522 232.775,227.905 232.675 C 228.287 232.575,227.880 232.496,227.000 232.501 C 226.120 232.505,225.807 232.587,226.305 232.683 M194.501 239.800 C 194.505 240.680,194.587 240.993,194.683 240.495 C 194.779 239.998,194.775 239.278,194.675 238.895 C 194.575 238.513,194.496 238.920,194.501 239.800 " stroke="none" fill="#36d9ee" fill-rule="evenodd"></path><path id="path2" d="M204.400 125.814 C 204.400 126.397,205.762 128.000,206.258 128.000 C 206.675 128.000,206.590 127.683,205.937 126.800 C 205.139 125.720,204.400 125.247,204.400 125.814 M211.200 128.000 C 210.790 128.265,211.743 128.375,214.200 128.348 C 217.187 128.315,217.527 128.252,216.200 127.977 C 214.013 127.525,211.921 127.534,211.200 128.000 M166.691 128.689 C 167.401 128.777,168.661 128.779,169.491 128.692 C 170.321 128.605,169.740 128.533,168.200 128.531 C 166.660 128.529,165.981 128.600,166.691 128.689 M132.723 147.573 C 132.621 150.050,132.340 152.191,132.075 152.509 C 131.771 152.875,131.639 154.526,131.697 157.236 C 131.770 160.663,131.660 161.587,131.075 162.457 C 130.451 163.386,130.405 163.985,130.702 167.409 C 130.967 170.467,130.925 171.418,130.508 171.834 C 129.809 172.533,130.930 174.983,132.470 176.121 C 134.330 177.495,139.339 177.414,141.400 175.977 C 141.620 175.823,142.227 175.567,142.749 175.406 C 143.272 175.246,144.352 174.729,145.149 174.257 L 146.600 173.400 143.600 173.152 C 141.950 173.016,139.209 172.881,137.509 172.852 C 132.860 172.774,133.107 173.675,133.173 157.008 C 133.229 143.106,133.056 139.484,132.723 147.573 M251.095 145.100 C 251.011 145.265,251.069 145.940,251.224 146.600 C 251.501 147.780,251.506 147.775,251.553 146.300 C 251.598 144.876,251.431 144.438,251.095 145.100 M198.403 155.300 C 197.266 156.675,195.898 158.132,195.362 158.538 C 194.826 158.944,194.192 159.642,193.952 160.090 C 193.319 161.272,194.758 160.231,197.531 157.499 L 199.661 155.400 209.731 155.381 C 219.516 155.362,222.810 154.994,221.765 154.035 C 221.439 153.736,206.353 152.783,202.135 152.795 C 200.581 152.800,200.331 152.968,198.403 155.300 M251.340 164.000 C 251.340 165.870,251.409 166.635,251.493 165.700 C 251.577 164.765,251.577 163.235,251.493 162.300 C 251.409 161.365,251.340 162.130,251.340 164.000 M175.384 163.368 C 174.791 167.321,177.395 171.664,179.373 170.022 C 179.692 169.758,180.278 169.575,180.676 169.617 C 182.582 169.815,183.644 169.464,186.178 167.800 C 187.685 166.810,188.658 166.000,188.339 166.000 C 188.021 166.000,187.570 166.190,187.338 166.422 C 185.531 168.229,178.746 165.863,176.933 162.794 C 175.980 161.181,175.696 161.287,175.384 163.368 M202.404 164.322 C 202.400 165.346,205.273 169.815,206.625 170.886 C 207.102 171.264,207.718 172.119,207.994 172.786 C 208.271 173.454,208.655 174.000,208.849 174.000 C 209.042 174.000,209.200 174.251,209.200 174.557 C 209.200 174.864,209.470 175.218,209.800 175.345 C 210.130 175.471,210.400 175.806,210.400 176.087 C 210.400 176.369,211.005 177.082,211.743 177.672 C 213.635 179.181,215.913 183.600,214.800 183.600 C 214.580 183.600,214.400 183.308,214.400 182.951 C 214.400 182.442,214.280 182.402,213.843 182.764 C 213.265 183.244,219.963 190.509,222.540 192.197 C 223.149 192.597,224.637 194.201,225.846 195.762 C 227.054 197.323,228.751 199.500,229.617 200.600 C 230.483 201.700,231.504 203.470,231.886 204.533 L 232.582 206.467 233.452 205.376 C 234.053 204.623,234.538 204.367,235.017 204.551 C 235.943 204.907,237.024 204.148,240.387 200.786 C 243.303 197.869,244.104 196.508,241.979 198.079 C 238.697 200.505,233.920 197.654,226.041 188.567 C 222.010 183.917,214.174 175.778,212.758 174.770 C 211.608 173.951,205.543 167.419,203.501 164.800 C 202.498 163.514,202.409 163.475,202.404 164.322 M251.382 170.066 C 251.677 173.145,251.867 173.516,253.611 174.406 C 256.216 175.734,264.000 175.406,264.000 173.968 C 264.000 173.539,262.397 173.277,257.927 172.973 C 253.587 172.677,252.851 172.244,251.749 169.338 L 251.165 167.800 251.382 170.066 M192.706 181.828 C 192.305 182.228,192.879 184.906,193.669 186.317 C 194.132 187.145,194.328 188.073,194.197 188.817 C 194.082 189.468,194.151 190.000,194.350 190.000 C 194.894 190.000,196.400 193.436,196.400 194.676 C 196.400 195.519,196.507 195.653,196.880 195.280 C 197.829 194.331,199.115 194.761,200.520 196.500 C 202.624 199.103,202.917 199.826,202.171 200.572 C 201.600 201.143,201.657 201.200,202.791 201.200 C 207.263 201.200,210.148 206.362,208.125 210.740 C 207.292 212.543,195.485 224.252,193.713 225.033 C 188.702 227.241,183.998 224.280,184.001 218.920 C 184.003 216.010,184.427 215.319,189.341 210.222 C 192.647 206.793,194.159 204.775,192.210 206.392 C 191.689 206.824,191.600 206.741,191.600 205.825 C 191.600 205.070,191.452 204.844,191.100 205.059 C 190.825 205.228,190.915 204.924,191.299 204.383 C 192.120 203.228,193.600 200.535,193.600 200.196 C 193.600 199.670,192.210 200.812,188.893 204.064 C 180.344 212.445,178.299 213.595,174.711 212.039 C 172.144 210.925,170.405 208.615,170.394 206.305 C 170.382 203.859,168.050 204.420,167.987 206.884 C 167.979 207.168,167.657 207.778,167.271 208.241 C 166.250 209.462,150.417 210.101,149.168 208.971 C 148.419 208.293,148.400 208.334,148.400 210.678 C 148.400 219.885,157.155 229.695,167.000 231.520 C 168.320 231.765,174.456 232.056,180.634 232.167 C 191.912 232.371,193.645 232.587,194.655 233.916 C 195.641 235.214,195.389 245.646,194.344 246.768 L 193.489 247.686 178.844 247.503 C 169.052 247.381,163.736 247.162,162.800 246.845 C 162.030 246.584,160.770 246.185,160.000 245.958 C 158.571 245.539,158.197 245.395,155.400 244.195 C 147.943 240.995,144.406 238.170,140.424 232.236 C 136.472 226.346,135.249 223.682,133.981 218.200 C 133.701 216.989,133.444 210.675,133.329 202.200 C 133.225 194.500,133.059 187.949,132.961 187.643 C 132.727 186.919,132.281 187.379,132.118 188.510 C 131.895 190.063,131.675 190.346,130.025 191.187 L 128.411 192.011 128.630 195.105 C 128.751 196.807,128.909 198.505,128.981 198.877 C 129.305 200.538,125.393 201.123,113.457 201.198 C 113.268 201.199,113.226 201.650,113.364 202.200 C 113.509 202.777,113.443 203.200,113.208 203.200 C 112.983 203.200,112.800 202.862,112.800 202.449 C 112.800 201.335,111.749 200.578,111.031 201.174 C 110.570 201.557,110.428 201.471,110.285 200.723 C 110.188 200.216,110.084 201.206,110.054 202.924 C 110.025 204.642,110.135 205.964,110.300 205.863 C 110.465 205.762,110.620 206.216,110.644 206.873 C 110.674 207.665,110.575 207.888,110.350 207.533 C 110.161 207.235,110.010 211.881,110.006 218.067 C 110.001 226.561,110.116 229.175,110.500 229.314 C 110.897 229.458,110.899 229.667,110.508 230.329 C 110.198 230.854,110.161 231.253,110.408 231.405 C 110.624 231.538,110.800 231.917,110.800 232.247 C 110.800 232.621,110.611 232.734,110.300 232.547 C 109.904 232.309,109.902 232.372,110.287 232.849 C 110.555 233.180,110.808 234.469,110.849 235.712 C 110.889 236.955,111.075 237.877,111.261 237.762 C 111.448 237.647,111.600 238.183,111.600 238.953 C 111.600 239.723,111.780 240.464,112.000 240.600 C 112.220 240.736,112.400 241.276,112.400 241.800 C 112.400 242.324,112.580 242.864,112.800 243.000 C 113.020 243.136,113.200 243.427,113.200 243.647 C 113.200 243.867,113.007 243.928,112.770 243.782 C 112.534 243.636,112.578 243.895,112.867 244.358 C 113.156 244.821,113.529 245.200,113.696 245.200 C 113.863 245.200,114.000 245.391,114.000 245.624 C 114.000 245.857,113.807 245.928,113.570 245.782 C 113.334 245.636,113.378 245.895,113.667 246.358 C 113.956 246.821,114.329 247.200,114.496 247.200 C 114.663 247.200,114.800 247.650,114.800 248.200 C 114.800 248.750,114.935 249.201,115.100 249.203 C 115.265 249.205,115.608 249.655,115.863 250.204 C 116.213 250.958,116.213 251.148,115.863 250.982 C 115.608 250.862,115.805 251.063,116.300 251.430 C 116.795 251.797,117.200 252.306,117.200 252.560 C 117.200 252.815,117.560 253.283,118.000 253.600 C 118.440 253.917,118.800 254.371,118.800 254.610 C 118.800 255.441,121.267 258.406,121.736 258.137 C 121.991 257.991,122.063 258.022,121.896 258.206 C 121.584 258.550,123.079 260.400,123.670 260.400 C 124.009 260.400,124.912 261.119,126.556 262.700 C 127.070 263.195,127.764 263.600,128.097 263.600 C 128.430 263.600,129.003 264.005,129.370 264.500 C 129.737 264.995,129.928 265.175,129.795 264.900 C 129.662 264.625,129.743 264.400,129.976 264.400 C 130.209 264.400,130.400 264.580,130.400 264.800 C 130.400 265.020,130.613 265.200,130.874 265.200 C 131.135 265.200,131.794 265.605,132.339 266.100 C 132.883 266.595,133.181 266.730,133.000 266.400 C 132.819 266.070,133.179 266.250,133.800 266.800 C 134.421 267.350,134.804 267.583,134.651 267.317 C 134.460 266.983,134.709 267.008,135.458 267.396 C 136.055 267.706,136.718 267.850,136.933 267.718 C 137.148 267.585,137.208 267.664,137.066 267.893 C 136.664 268.543,138.417 269.034,141.524 269.141 C 142.472 269.173,143.157 269.345,143.047 269.523 C 142.938 269.701,143.589 269.890,144.495 269.944 C 145.401 269.997,146.332 270.158,146.563 270.301 C 147.282 270.745,151.600 270.677,151.606 270.221 C 151.609 269.989,151.787 270.070,152.000 270.400 C 152.213 270.730,152.390 270.820,152.394 270.600 C 152.399 270.229,158.699 270.150,167.200 270.414 C 168.850 270.465,171.055 270.373,172.100 270.208 C 173.408 270.002,174.000 270.048,174.000 270.355 C 174.000 270.657,175.540 270.800,178.800 270.800 C 181.440 270.800,183.600 270.665,183.600 270.500 C 183.600 270.335,184.320 270.200,185.200 270.200 C 186.080 270.200,186.800 270.335,186.800 270.500 C 186.800 270.665,187.880 270.800,189.200 270.800 C 190.520 270.800,191.600 270.631,191.600 270.425 C 191.600 270.031,202.442 270.026,202.800 270.420 C 202.910 270.541,208.483 270.476,215.185 270.275 C 224.071 270.008,227.410 270.030,227.518 270.355 C 227.600 270.600,227.842 270.800,228.057 270.800 C 228.272 270.800,228.336 270.620,228.200 270.400 C 228.037 270.136,232.529 270.000,241.376 270.000 C 250.059 270.000,254.800 269.859,254.800 269.600 C 254.800 269.380,255.261 269.200,255.824 269.200 C 256.387 269.200,256.746 269.363,256.623 269.563 C 256.500 269.762,256.848 269.717,257.396 269.463 C 257.945 269.208,258.395 268.865,258.397 268.700 C 258.399 268.535,258.940 268.400,259.600 268.400 C 260.260 268.400,260.800 268.220,260.800 268.000 C 260.800 267.780,261.340 267.600,262.000 267.600 C 262.660 267.600,263.200 267.420,263.200 267.200 C 263.200 266.980,263.650 266.800,264.200 266.800 C 264.750 266.800,265.200 266.620,265.200 266.400 C 265.200 266.180,265.560 266.000,266.000 266.000 C 266.440 266.000,266.800 265.854,266.800 265.675 C 266.800 265.496,267.430 265.102,268.200 264.800 C 268.970 264.498,269.600 264.138,269.600 264.000 C 269.600 263.862,270.230 263.502,271.000 263.200 C 271.770 262.898,272.400 262.504,272.400 262.325 C 272.400 262.146,272.625 261.992,272.900 261.982 C 273.175 261.971,273.760 261.502,274.200 260.939 C 274.640 260.376,275.538 259.439,276.196 258.857 C 279.012 256.367,280.635 254.507,281.568 252.700 C 281.880 252.095,282.270 251.600,282.436 251.600 C 282.601 251.600,282.858 251.048,283.006 250.373 C 283.154 249.698,283.528 249.049,283.838 248.930 C 284.147 248.812,284.400 248.294,284.400 247.781 C 284.400 247.267,284.580 246.736,284.800 246.600 C 285.020 246.464,285.200 246.003,285.200 245.576 C 285.200 245.149,285.380 244.800,285.600 244.800 C 285.820 244.800,286.000 244.451,286.000 244.024 C 286.000 243.597,286.180 243.136,286.400 243.000 C 286.620 242.864,286.800 242.403,286.800 241.976 C 286.800 241.549,286.980 241.200,287.200 241.200 C 287.420 241.200,287.600 240.401,287.600 239.424 C 287.600 238.447,287.780 237.536,288.000 237.400 C 288.220 237.264,288.400 236.008,288.400 234.610 C 288.400 233.108,288.581 232.006,288.842 231.919 C 289.163 231.812,289.147 229.863,288.781 224.786 C 288.505 220.944,288.261 215.820,288.239 213.400 C 288.202 209.252,288.154 209.004,287.400 209.078 C 286.960 209.121,284.581 209.357,282.113 209.603 C 276.031 210.210,269.574 210.228,268.480 209.643 C 267.605 209.175,267.600 209.192,267.600 212.586 C 267.600 214.595,267.435 216.000,267.200 216.000 C 266.980 216.000,266.800 216.458,266.800 217.018 C 266.800 218.911,264.691 224.582,262.865 227.600 C 257.458 236.535,253.392 240.346,245.800 243.595 C 244.040 244.348,242.420 245.084,242.200 245.231 C 241.980 245.377,240.810 245.720,239.600 245.994 C 238.390 246.267,236.977 246.654,236.460 246.855 C 234.527 247.605,207.774 247.806,206.664 247.079 C 204.974 245.971,204.359 234.674,205.905 233.133 C 206.662 232.379,211.190 232.052,221.274 232.025 C 232.300 231.995,237.169 231.153,240.400 228.717 C 240.950 228.303,242.587 227.078,244.038 225.995 C 247.775 223.206,249.813 219.814,251.438 213.680 C 252.012 211.517,252.293 191.226,251.757 190.690 C 251.623 190.556,251.218 190.606,250.857 190.799 C 250.496 190.993,249.686 191.261,249.058 191.394 C 247.777 191.666,247.757 192.238,248.884 196.200 C 249.261 197.523,249.344 198.674,249.129 199.600 C 248.950 200.370,248.886 202.464,248.986 204.252 C 249.231 208.613,248.974 208.846,243.490 209.227 C 238.402 209.581,232.765 209.124,232.256 208.316 C 231.963 207.851,231.592 208.061,230.379 209.376 C 228.441 211.479,225.949 212.253,223.469 211.521 C 221.679 210.993,220.436 209.831,208.995 198.000 C 205.698 194.590,201.542 190.450,199.760 188.800 C 197.978 187.150,195.716 184.851,194.734 183.692 C 193.753 182.533,192.839 181.694,192.706 181.828 M172.392 194.194 C 166.993 199.595,164.476 200.645,160.708 199.071 C 158.405 198.109,156.711 194.487,157.153 191.471 C 157.253 190.788,157.199 190.782,156.277 191.386 C 155.144 192.129,154.800 193.456,154.800 197.088 C 154.800 198.790,154.571 200.065,154.131 200.810 C 152.922 202.856,156.858 206.400,160.339 206.400 C 161.869 206.400,164.400 205.415,164.400 204.820 C 164.400 204.589,164.670 204.400,165.000 204.400 C 165.330 204.400,165.600 204.124,165.600 203.787 C 165.600 203.449,167.130 201.640,169.000 199.766 C 170.870 197.891,172.400 196.284,172.400 196.193 C 172.400 196.102,172.925 195.491,173.567 194.834 C 174.208 194.178,174.845 193.288,174.982 192.857 C 175.119 192.426,175.482 191.977,175.789 191.860 C 176.426 191.615,177.396 190.000,176.906 190.000 C 176.729 190.000,174.698 191.887,172.392 194.194 M148.520 202.800 C 148.520 204.010,148.595 204.505,148.687 203.900 C 148.778 203.295,148.778 202.305,148.687 201.700 C 148.595 201.095,148.520 201.590,148.520 202.800 M116.449 205.176 C 117.685 205.429,120.124 205.582,121.868 205.518 C 125.032 205.400,125.043 205.403,126.591 206.862 L 128.142 208.325 125.971 208.585 C 124.777 208.728,121.100 208.790,117.800 208.722 L 111.800 208.600 111.848 207.070 C 111.919 204.827,112.744 203.430,113.568 204.158 C 113.916 204.465,115.212 204.923,116.449 205.176 M241.745 213.000 C 241.871 213.330,242.251 213.600,242.587 213.600 C 242.924 213.600,243.200 213.901,243.200 214.270 C 243.200 214.838,243.340 214.808,244.126 214.070 C 245.328 212.941,245.693 212.977,246.300 214.283 C 246.950 215.683,246.978 218.557,246.337 218.161 C 246.022 217.967,245.943 218.140,246.091 218.703 C 246.369 219.768,245.576 219.987,241.400 219.996 C 239.640 220.000,235.230 220.292,231.600 220.646 C 222.896 221.493,220.552 221.525,221.004 220.793 C 221.142 220.570,221.410 220.483,221.599 220.599 C 221.946 220.814,225.381 218.678,225.813 217.979 C 225.942 217.770,226.487 217.600,227.024 217.600 C 227.570 217.600,228.000 217.365,228.000 217.068 C 228.000 216.775,228.470 216.284,229.045 215.976 C 229.619 215.669,230.245 215.008,230.435 214.508 C 230.823 213.488,232.400 213.241,232.400 214.200 C 232.400 214.530,232.580 214.800,232.800 214.800 C 233.020 214.800,233.200 214.459,233.200 214.043 C 233.200 212.832,235.310 212.362,236.738 213.254 C 237.299 213.605,237.731 213.569,238.633 213.097 C 240.165 212.294,241.458 212.253,241.745 213.000 M274.700 213.195 C 274.975 213.198,275.200 213.470,275.200 213.800 C 275.200 214.130,275.380 214.400,275.600 214.400 C 275.820 214.400,276.000 214.220,276.000 214.000 C 276.000 213.472,278.680 213.482,279.007 214.011 C 279.146 214.236,279.560 214.371,279.927 214.311 C 280.303 214.248,280.766 214.591,280.991 215.100 C 281.210 215.595,281.662 216.027,281.995 216.061 C 282.328 216.094,282.780 216.164,283.000 216.215 C 283.220 216.266,283.715 216.328,284.100 216.354 C 285.118 216.421,284.958 217.553,283.900 217.767 C 282.488 218.053,268.163 218.429,267.920 218.187 C 267.580 217.846,268.424 214.259,268.983 213.671 C 269.399 213.235,269.597 213.254,270.129 213.786 C 270.719 214.376,270.841 214.359,271.623 213.577 C 272.189 213.011,272.763 212.804,273.337 212.958 C 273.812 213.085,274.425 213.192,274.700 213.195 M217.480 214.500 C 221.842 219.289,218.990 225.200,212.316 225.200 C 209.529 225.200,208.939 224.914,207.408 222.822 C 205.846 220.688,206.068 219.961,209.303 216.608 L 212.206 213.600 214.433 213.600 C 216.233 213.600,216.818 213.773,217.480 214.500 M153.987 216.166 C 154.189 216.697,154.727 217.250,155.183 217.395 C 156.377 217.774,155.781 218.400,154.225 218.400 C 152.455 218.400,151.860 217.662,152.506 216.270 C 153.119 214.949,153.514 214.922,153.987 216.166 M178.100 270.289 C 177.385 270.378,176.215 270.378,175.500 270.289 C 174.785 270.201,175.370 270.128,176.800 270.128 C 178.230 270.128,178.815 270.201,178.100 270.289 " stroke="none" fill="#122f8e" fill-rule="evenodd"></path><path id="path3" d="M250.601 90.398 C 250.483 90.590,250.931 90.731,251.598 90.712 C 252.938 90.674,252.965 90.463,251.663 90.212 C 251.197 90.122,250.720 90.206,250.601 90.398 M279.600 104.567 C 279.600 104.988,280.805 106.128,281.021 105.912 C 281.122 105.811,280.844 105.402,280.402 105.002 C 279.961 104.603,279.600 104.407,279.600 104.567 M117.000 109.200 C 116.316 109.494,116.301 109.548,116.900 109.572 C 117.285 109.587,117.600 109.792,117.600 110.027 C 117.600 110.266,117.262 110.347,116.834 110.211 C 116.412 110.077,115.949 110.159,115.804 110.394 C 115.659 110.628,115.716 110.770,115.930 110.710 C 116.145 110.649,116.293 110.780,116.260 111.000 C 116.227 111.220,116.082 111.361,115.938 111.313 C 115.794 111.265,115.457 111.490,115.189 111.813 C 114.848 112.224,114.836 112.400,115.151 112.400 C 115.398 112.400,115.600 112.580,115.600 112.800 C 115.600 113.020,115.311 113.200,114.957 113.200 C 114.550 113.200,114.399 113.420,114.545 113.800 C 114.671 114.130,114.601 114.400,114.387 114.400 C 114.174 114.400,114.000 114.655,114.000 114.967 C 114.000 115.278,113.823 115.593,113.607 115.667 C 113.391 115.740,113.150 116.386,113.072 117.102 C 112.994 117.817,112.811 118.522,112.665 118.668 C 112.519 118.814,112.400 119.353,112.400 119.867 C 112.400 120.380,112.220 120.800,112.000 120.800 C 111.780 120.800,111.600 121.441,111.600 122.224 C 111.600 123.060,111.437 123.546,111.205 123.403 C 110.987 123.268,110.901 123.397,111.013 123.689 C 111.125 123.980,110.960 125.070,110.647 126.110 C 110.334 127.150,110.213 128.085,110.379 128.187 C 110.544 128.289,110.810 133.821,110.969 140.481 C 111.158 148.397,111.408 152.681,111.689 152.855 C 112.219 153.183,128.094 152.801,128.470 152.451 C 128.874 152.077,127.876 145.408,127.317 144.738 C 127.051 144.419,126.066 144.113,125.129 144.058 C 122.477 143.901,122.785 143.603,125.633 143.570 C 127.045 143.554,128.650 143.465,129.200 143.373 C 131.841 142.930,131.847 142.924,132.772 139.808 C 133.876 136.088,134.177 136.005,133.884 139.500 C 133.746 141.153,133.787 141.812,133.989 141.200 C 134.171 140.650,134.338 139.569,134.360 138.798 C 134.446 135.770,137.632 128.565,140.231 125.521 C 142.176 123.241,142.208 123.132,141.414 121.400 L 140.865 120.200 140.832 121.300 C 140.813 121.976,140.578 122.400,140.224 122.400 C 139.547 122.400,139.106 121.827,139.488 121.445 C 139.634 121.299,139.807 120.830,139.872 120.404 C 139.937 119.977,140.014 119.487,140.043 119.314 C 140.559 116.196,135.647 115.496,134.952 118.589 C 134.803 119.255,134.602 119.575,134.507 119.300 C 134.411 119.025,134.024 118.800,133.647 118.800 C 133.269 118.800,132.737 118.577,132.463 118.303 C 132.146 117.986,131.864 117.950,131.683 118.203 C 131.344 118.678,130.398 118.703,129.682 118.255 C 129.379 118.065,128.772 118.189,128.217 118.552 C 127.305 119.149,127.253 119.128,126.854 117.984 C 126.618 117.307,126.001 116.629,125.420 116.408 C 124.246 115.961,124.103 115.400,125.069 115.029 C 125.664 114.800,125.646 114.707,124.902 114.186 C 124.070 113.604,122.800 113.759,122.800 114.443 C 122.800 114.639,122.511 114.800,122.157 114.800 C 121.752 114.800,121.599 114.580,121.744 114.203 C 121.872 113.868,121.586 113.245,121.092 112.785 C 120.608 112.334,120.149 112.153,120.072 112.383 C 119.996 112.612,119.678 112.800,119.367 112.800 C 118.618 112.800,118.640 111.303,119.400 110.543 C 120.827 109.116,119.249 108.233,117.000 109.200 M204.400 113.476 C 200.094 117.285,200.089 117.292,199.814 119.800 C 199.445 123.169,198.744 126.089,198.126 126.831 C 197.837 127.179,197.600 127.674,197.600 127.931 C 197.600 128.189,197.512 128.400,197.405 128.400 C 196.955 128.400,195.600 126.982,195.600 126.511 C 195.600 125.822,195.010 125.866,194.400 126.600 C 194.024 127.054,192.864 127.220,189.651 127.284 L 185.400 127.367 189.370 127.499 L 193.341 127.631 190.634 129.604 C 187.299 132.035,187.803 131.958,174.200 132.116 L 163.000 132.247 160.400 133.462 C 158.970 134.130,157.553 134.975,157.251 135.338 C 156.949 135.702,156.446 136.000,156.134 136.000 C 155.821 136.000,154.700 136.810,153.641 137.800 C 151.535 139.771,150.927 140.058,151.626 138.752 C 151.876 138.285,151.905 138.012,151.690 138.144 C 151.169 138.467,149.243 142.559,148.558 144.800 C 148.145 146.155,148.008 149.574,148.004 158.620 C 148.001 167.696,147.878 170.763,147.500 171.144 C 147.099 171.548,147.139 171.595,147.700 171.381 C 148.308 171.149,148.400 170.537,148.400 166.714 C 148.400 162.867,148.479 162.345,149.033 162.557 C 149.381 162.691,149.708 162.800,149.761 162.800 C 149.814 162.800,149.715 163.745,149.542 164.900 C 148.675 170.695,148.677 170.600,149.415 171.213 C 150.531 172.140,168.828 172.315,169.736 171.407 C 170.413 170.730,170.284 167.423,169.548 166.620 C 168.681 165.674,170.846 162.000,172.271 162.000 C 172.927 162.000,174.399 160.195,174.413 159.374 C 174.420 158.948,174.690 158.251,175.013 157.824 C 175.336 157.396,175.600 157.261,175.600 157.524 C 175.600 158.474,176.343 157.971,176.588 156.854 C 176.727 156.224,177.146 155.369,177.520 154.954 C 177.895 154.539,178.719 153.570,179.353 152.800 C 179.986 152.030,182.326 149.444,184.552 147.053 C 189.553 141.682,189.592 141.619,187.907 141.732 C 187.188 141.780,186.363 141.968,186.074 142.149 C 185.785 142.331,180.385 142.554,174.074 142.646 C 167.763 142.738,161.340 142.887,159.800 142.977 C 153.376 143.353,153.062 142.099,159.000 139.772 C 159.440 139.600,162.230 139.434,165.200 139.404 C 181.133 139.241,185.854 138.595,188.271 136.247 C 191.798 132.821,192.395 132.107,192.397 131.314 C 192.400 130.327,193.737 129.414,194.660 129.768 C 194.989 129.894,195.597 129.815,196.012 129.593 C 196.833 129.154,197.586 130.037,197.614 131.474 C 197.632 132.381,198.992 134.066,200.755 135.367 C 202.245 136.466,202.381 136.308,199.400 136.938 C 198.960 137.031,205.020 137.128,212.867 137.154 C 222.557 137.185,227.178 137.065,227.274 136.778 C 227.631 135.708,235.967 136.470,238.197 137.777 C 240.084 138.883,242.400 141.320,242.400 142.200 C 242.400 142.841,241.044 143.710,240.653 143.319 C 240.514 143.180,240.400 143.277,240.400 143.533 C 240.400 143.790,240.649 144.000,240.954 144.000 C 241.989 144.000,242.979 146.021,242.399 146.950 C 242.031 147.540,242.016 147.805,242.346 147.915 C 242.595 147.998,242.800 148.381,242.800 148.766 C 242.800 149.150,243.264 149.713,243.831 150.017 C 245.155 150.725,245.780 151.836,245.101 152.276 C 244.825 152.454,238.120 152.690,230.200 152.800 C 220.162 152.939,217.426 153.061,221.168 153.200 C 224.728 153.333,226.587 153.556,226.689 153.864 C 227.009 154.831,222.602 157.225,219.926 157.538 C 218.537 157.700,217.430 158.006,217.467 158.217 C 217.508 158.451,214.900 158.575,210.768 158.536 C 206.768 158.499,203.904 158.631,203.763 158.860 C 203.631 159.073,203.016 159.135,202.394 158.999 C 201.639 158.833,200.729 159.024,199.648 159.575 C 198.759 160.029,197.739 160.400,197.380 160.400 C 196.558 160.400,195.413 161.726,194.414 163.835 C 193.534 165.692,192.629 166.589,192.017 166.210 C 191.787 166.068,191.413 166.439,191.187 167.034 C 190.961 167.628,190.241 168.790,189.588 169.615 C 188.222 171.340,188.141 171.851,189.070 172.877 C 189.985 173.889,187.713 176.400,185.882 176.400 C 183.143 176.400,180.772 178.794,182.472 179.844 C 183.880 180.714,191.097 180.482,191.753 179.545 C 192.109 179.038,192.400 178.853,192.400 179.135 C 192.400 180.094,193.096 179.222,193.352 177.942 C 194.380 172.801,199.460 171.118,203.879 174.455 L 206.600 176.510 204.700 174.472 C 203.533 173.220,202.800 172.066,202.800 171.479 C 202.800 170.954,202.415 170.181,201.945 169.762 C 201.474 169.343,200.842 168.415,200.539 167.700 C 200.237 166.985,199.710 166.400,199.368 166.400 C 198.959 166.400,198.821 166.161,198.966 165.700 C 199.269 164.733,197.415 163.857,196.313 164.447 C 195.655 164.799,195.552 164.748,195.672 164.133 C 195.823 163.360,197.098 163.155,198.635 163.657 C 199.131 163.820,200.134 163.633,201.111 163.195 C 202.299 162.664,202.811 162.590,202.961 162.930 C 203.075 163.189,203.076 162.947,202.964 162.394 C 202.533 160.267,204.575 159.108,209.144 158.888 C 215.314 158.591,216.201 158.830,219.286 161.614 C 220.741 162.928,222.008 163.867,222.101 163.701 C 222.193 163.536,222.222 163.604,222.165 163.853 C 221.969 164.708,231.619 175.200,232.602 175.200 C 232.770 175.200,232.432 174.826,231.851 174.369 C 230.122 173.009,229.624 171.785,231.113 172.555 C 231.937 172.981,232.406 173.034,232.706 172.734 C 232.961 172.479,235.983 172.245,240.265 172.149 C 249.172 171.948,250.099 171.650,248.672 169.444 C 247.182 167.140,246.893 163.228,248.126 162.069 C 249.019 161.231,249.359 158.026,248.632 157.299 C 248.533 157.199,248.615 156.686,248.816 156.159 C 249.036 155.579,249.034 154.816,248.812 154.231 C 248.545 153.529,248.596 153.135,248.998 152.802 C 249.566 152.330,249.506 151.890,248.586 149.800 C 248.296 149.140,247.769 147.340,247.415 145.800 C 247.061 144.260,246.626 142.537,246.447 141.970 C 245.970 140.456,243.259 137.134,241.222 135.567 C 240.244 134.815,238.923 133.727,238.285 133.148 C 236.680 131.690,235.370 131.595,220.800 131.874 C 213.870 132.007,207.615 132.121,206.900 132.128 C 205.259 132.143,203.879 130.888,203.098 128.671 C 201.018 122.764,201.331 118.975,204.210 115.200 L 205.277 113.800 205.043 115.200 C 204.815 116.566,204.820 116.572,205.250 115.464 C 205.829 113.972,205.283 112.695,204.400 113.476 M204.937 121.400 C 204.939 123.160,205.009 123.830,205.093 122.889 C 205.178 121.949,205.177 120.509,205.091 119.689 C 205.005 118.870,204.936 119.640,204.937 121.400 M142.900 120.665 C 142.625 120.776,142.400 121.222,142.400 121.657 C 142.400 122.560,142.999 122.323,143.612 121.178 C 144.026 120.404,143.854 120.280,142.900 120.665 M195.714 123.800 C 195.717 124.900,195.795 125.303,195.887 124.695 C 195.979 124.086,195.977 123.186,195.882 122.695 C 195.787 122.203,195.711 122.700,195.714 123.800 M139.200 122.757 C 139.200 122.954,138.930 123.218,138.600 123.345 C 137.990 123.579,137.781 123.153,138.267 122.667 C 138.649 122.284,139.200 122.338,139.200 122.757 M170.311 127.493 C 171.251 127.578,172.691 127.577,173.511 127.491 C 174.330 127.405,173.560 127.336,171.800 127.337 C 170.040 127.339,169.370 127.409,170.311 127.493 M223.682 127.496 C 225.158 127.573,227.678 127.573,229.282 127.497 C 230.887 127.421,229.680 127.358,226.600 127.358 C 223.520 127.357,222.207 127.419,223.682 127.496 M154.575 134.100 L 153.400 135.400 154.700 134.225 C 155.912 133.130,156.184 132.800,155.875 132.800 C 155.806 132.800,155.221 133.385,154.575 134.100 M266.909 139.600 C 266.909 140.590,266.987 140.995,267.082 140.500 C 267.178 140.005,267.178 139.195,267.082 138.700 C 266.987 138.205,266.909 138.610,266.909 139.600 M282.200 142.857 C 280.880 143.055,277.057 143.168,273.704 143.108 C 269.902 143.041,267.554 143.151,267.464 143.400 C 267.386 143.620,267.287 150.085,267.246 157.767 C 267.178 170.418,267.106 171.785,266.485 172.287 C 265.861 172.792,265.880 172.820,266.697 172.595 C 267.801 172.291,267.545 173.437,266.429 173.791 C 266.046 173.912,265.127 174.733,264.388 175.615 C 262.480 177.888,259.793 179.470,257.274 179.802 C 254.904 180.114,254.833 180.468,257.101 180.667 C 257.925 180.740,259.410 181.016,260.400 181.281 L 262.200 181.764 260.800 182.063 C 260.030 182.227,258.462 182.257,257.316 182.128 C 252.880 181.629,251.585 183.314,252.312 188.636 L 252.690 191.400 252.645 187.671 C 252.585 182.737,252.498 182.798,259.576 182.806 C 267.031 182.814,266.941 182.755,267.223 187.810 C 267.345 190.005,267.480 191.494,267.523 191.121 C 267.588 190.544,267.781 190.505,268.802 190.861 C 270.118 191.319,286.379 191.112,287.854 190.617 L 288.708 190.331 288.742 199.420 C 288.761 204.419,288.875 208.608,288.996 208.729 C 289.303 209.036,288.937 171.560,288.603 168.512 C 288.453 167.143,288.503 165.214,288.714 164.224 C 288.985 162.954,288.961 162.156,288.633 161.512 C 288.313 160.885,288.252 159.349,288.438 156.600 C 288.587 154.400,288.677 152.563,288.638 152.517 C 288.382 152.218,277.283 152.107,275.000 152.381 C 271.189 152.838,268.632 152.452,268.498 151.400 C 268.343 150.188,268.898 149.627,270.420 149.456 C 271.563 149.329,271.779 149.156,271.675 148.451 C 271.606 147.983,271.741 147.600,271.975 147.600 C 272.209 147.600,272.400 147.745,272.400 147.923 C 272.400 148.685,274.691 148.998,277.709 148.646 C 280.672 148.301,280.874 148.328,281.443 149.141 C 282.152 150.152,283.016 150.256,283.356 149.371 C 283.490 149.020,283.995 148.775,284.499 148.815 C 287.425 149.053,287.482 149.008,287.902 146.100 C 288.486 142.068,288.273 141.947,282.200 142.857 M252.162 153.000 C 252.162 156.520,252.224 157.906,252.298 156.081 C 252.372 154.256,252.372 151.376,252.297 149.681 C 252.222 147.986,252.161 149.480,252.162 153.000 M205.505 152.683 C 206.002 152.779,206.722 152.775,207.105 152.675 C 207.487 152.575,207.080 152.496,206.200 152.501 C 205.320 152.505,205.007 152.587,205.505 152.683 M117.764 157.485 C 117.508 157.890,116.627 158.099,114.996 158.140 L 112.603 158.200 112.100 159.736 C 111.375 161.949,111.499 162.000,117.524 161.996 C 124.992 161.990,126.000 161.800,126.000 160.402 C 126.000 158.842,123.451 157.090,121.692 157.442 C 121.003 157.579,119.922 157.512,119.289 157.291 C 118.388 156.977,118.058 157.019,117.764 157.485 M252.150 164.200 C 252.151 166.620,252.216 167.558,252.296 166.285 C 252.376 165.012,252.375 163.032,252.294 161.885 C 252.214 160.738,252.149 161.780,252.150 164.200 M167.400 162.800 C 167.553 163.048,166.839 163.198,165.524 163.194 C 164.005 163.189,163.571 163.077,164.000 162.800 C 164.788 162.290,167.085 162.290,167.400 162.800 M152.265 163.277 C 151.460 163.570,151.001 163.561,150.685 163.245 C 150.358 162.918,150.660 162.808,151.820 162.832 C 153.382 162.863,153.387 162.868,152.265 163.277 M117.400 169.600 C 117.264 169.820,116.218 170.003,115.076 170.006 C 112.678 170.013,111.548 170.508,112.273 171.233 C 112.700 171.660,114.922 171.778,120.087 171.648 C 121.822 171.604,122.703 170.400,121.000 170.400 C 120.717 170.400,120.382 170.130,120.255 169.800 C 119.996 169.125,117.789 168.970,117.400 169.600 M210.600 172.400 C 211.683 173.500,212.660 174.400,212.770 174.400 C 212.880 174.400,212.083 173.500,211.000 172.400 C 209.917 171.300,208.940 170.400,208.830 170.400 C 208.720 170.400,209.517 171.300,210.600 172.400 M136.305 172.683 C 136.802 172.779,137.522 172.775,137.905 172.675 C 138.287 172.575,137.880 172.496,137.000 172.501 C 136.120 172.505,135.807 172.587,136.305 172.683 M192.948 172.812 C 192.675 173.085,192.209 173.094,191.568 172.838 C 190.658 172.474,190.683 172.449,191.980 172.425 C 192.927 172.408,193.231 172.529,192.948 172.812 M196.400 172.800 C 196.400 173.020,196.040 173.200,195.600 173.200 C 195.160 173.200,194.800 173.020,194.800 172.800 C 194.800 172.580,195.160 172.400,195.600 172.400 C 196.040 172.400,196.400 172.580,196.400 172.800 M287.994 172.900 C 287.986 173.549,287.214 174.756,287.206 174.133 C 287.203 173.876,287.091 173.381,286.957 173.033 C 286.798 172.618,286.935 172.400,287.357 172.400 C 287.711 172.400,287.997 172.625,287.994 172.900 M233.545 173.324 C 232.953 173.774,233.002 173.935,234.045 174.978 C 235.141 176.074,235.200 176.089,235.200 175.267 C 235.200 174.746,234.949 174.400,234.573 174.400 C 234.128 174.400,234.020 174.168,234.200 173.600 C 234.494 172.674,234.433 172.648,233.545 173.324 M239.873 174.953 C 239.757 175.257,239.107 175.751,238.431 176.051 C 236.848 176.751,236.776 178.210,238.262 179.487 C 239.216 180.307,239.779 180.408,243.762 180.475 C 246.203 180.516,248.740 180.564,249.400 180.581 C 250.060 180.598,250.900 180.440,251.268 180.230 C 251.716 179.973,252.126 180.007,252.517 180.331 C 253.072 180.792,254.405 180.598,254.395 180.057 C 254.393 179.916,253.628 179.457,252.695 179.037 C 251.763 178.617,250.319 177.942,249.488 177.537 C 248.656 177.132,247.498 176.800,246.913 176.800 C 246.329 176.800,245.471 176.442,245.005 176.005 C 244.337 175.377,243.911 175.280,242.980 175.544 C 241.569 175.942,240.800 175.739,240.800 174.967 C 240.800 174.240,240.151 174.230,239.873 174.953 M147.151 175.876 C 146.848 176.201,145.700 177.242,144.600 178.191 C 143.500 179.140,142.725 180.045,142.878 180.202 C 143.238 180.574,152.363 180.689,157.000 180.381 C 158.980 180.249,160.922 180.300,161.316 180.494 C 162.107 180.882,164.592 179.597,165.523 178.318 C 165.810 177.923,166.305 177.600,166.623 177.600 C 166.940 177.600,167.200 177.242,167.200 176.803 C 167.200 175.985,165.632 175.839,164.482 176.549 C 164.179 176.737,164.000 176.597,164.000 176.175 C 164.000 175.614,163.897 175.587,163.383 176.014 C 162.356 176.867,150.411 176.934,149.482 176.093 C 148.524 175.226,147.819 175.160,147.151 175.876 M171.572 176.142 C 169.413 176.834,168.030 177.831,165.475 180.538 C 164.197 181.892,162.037 184.166,160.675 185.592 C 159.314 187.017,160.810 185.656,164.000 182.568 C 171.901 174.918,175.612 174.091,179.100 179.200 C 179.595 179.925,180.000 180.352,180.000 180.148 C 180.000 177.519,174.874 175.083,171.572 176.142 M234.217 177.300 C 237.189 180.646,239.690 183.243,239.818 183.115 C 239.889 183.044,239.194 182.167,238.274 181.167 C 237.353 180.167,235.831 178.506,234.892 177.475 C 233.952 176.444,233.076 175.600,232.945 175.600 C 232.814 175.600,233.386 176.365,234.217 177.300 M206.400 176.925 C 206.400 176.994,206.985 177.579,207.700 178.225 L 209.000 179.400 207.825 178.100 C 206.730 176.888,206.400 176.616,206.400 176.925 M210.200 181.200 C 211.059 182.080,211.852 182.800,211.962 182.800 C 212.072 182.800,211.459 182.080,210.600 181.200 C 209.741 180.320,208.948 179.600,208.838 179.600 C 208.728 179.600,209.341 180.320,210.200 181.200 M288.182 183.100 C 287.705 187.991,287.648 188.167,286.781 187.382 C 286.181 186.840,285.548 186.732,283.906 186.891 C 281.212 187.152,280.800 186.982,280.800 185.609 C 280.800 184.386,280.217 184.000,278.367 184.000 C 277.725 184.000,277.200 183.820,277.200 183.600 C 277.200 183.380,277.549 183.200,277.976 183.200 C 278.403 183.200,278.864 183.020,279.000 182.800 C 279.142 182.570,278.768 182.395,278.124 182.388 C 273.912 182.342,281.188 181.012,286.503 180.856 L 288.407 180.800 288.182 183.100 M180.109 182.800 C 180.109 183.790,180.187 184.195,180.282 183.700 C 180.378 183.205,180.378 182.395,180.282 181.900 C 180.187 181.405,180.109 181.810,180.109 182.800 M137.200 182.678 C 133.339 182.905,133.192 182.988,133.257 184.908 L 133.314 186.600 133.557 185.000 L 133.800 183.400 138.920 183.059 C 147.124 182.513,147.618 182.780,148.030 188.000 L 148.268 191.000 148.334 187.869 C 148.448 182.477,147.567 182.066,137.200 182.678 M220.800 182.525 C 220.800 182.594,221.385 183.179,222.100 183.825 L 223.400 185.000 222.225 183.700 C 221.130 182.488,220.800 182.216,220.800 182.525 M216.600 187.600 C 218.571 189.580,220.273 191.200,220.383 191.200 C 220.493 191.200,218.971 189.580,217.000 187.600 C 215.029 185.620,213.327 184.000,213.217 184.000 C 213.107 184.000,214.629 185.620,216.600 187.600 M242.305 186.648 C 243.736 188.766,243.978 189.440,244.102 191.648 L 244.246 194.200 244.323 191.300 C 244.365 189.705,244.253 188.400,244.074 188.400 C 243.894 188.400,243.356 187.703,242.877 186.852 C 242.399 186.001,241.702 185.056,241.329 184.752 C 240.956 184.448,241.395 185.302,242.305 186.648 M198.400 187.400 C 199.146 188.170,199.847 188.800,199.957 188.800 C 200.067 188.800,199.546 188.170,198.800 187.400 C 198.054 186.630,197.353 186.000,197.243 186.000 C 197.133 186.000,197.654 186.630,198.400 187.400 M244.700 186.432 C 243.749 186.986,243.814 188.000,244.800 188.000 C 245.327 188.000,245.600 188.267,245.600 188.780 C 245.600 189.872,246.676 190.381,247.842 189.841 C 248.365 189.598,248.793 189.310,248.792 189.200 C 248.789 188.888,246.064 187.200,245.563 187.200 C 245.316 187.200,245.218 186.930,245.345 186.600 C 245.613 185.900,245.613 185.900,244.700 186.432 M149.680 188.080 C 148.246 189.514,149.665 191.034,151.869 190.424 C 154.146 189.794,154.776 189.314,153.789 188.962 C 153.355 188.808,152.393 188.438,151.651 188.141 C 150.034 187.492,150.261 187.499,149.680 188.080 M185.600 188.453 C 183.552 189.696,181.807 191.292,178.041 195.366 C 174.919 198.744,174.988 198.693,179.026 194.637 C 186.580 187.051,189.118 186.238,193.187 190.100 L 195.400 192.200 193.214 189.900 C 190.656 187.210,188.365 186.774,185.600 188.453 M147.758 205.800 C 147.758 208.880,147.821 210.087,147.897 208.482 C 147.973 206.878,147.973 204.358,147.896 202.882 C 147.819 201.407,147.757 202.720,147.758 205.800 M266.937 204.600 C 266.939 206.360,267.009 207.030,267.093 206.089 C 267.178 205.149,267.177 203.709,267.091 202.889 C 267.005 202.070,266.936 202.840,266.937 204.600 M187.775 204.500 L 186.600 205.800 187.900 204.625 C 189.112 203.530,189.384 203.200,189.075 203.200 C 189.006 203.200,188.421 203.785,187.775 204.500 M214.400 203.325 C 214.400 203.394,214.985 203.979,215.700 204.625 L 217.000 205.800 215.825 204.500 C 214.730 203.288,214.400 203.016,214.400 203.325 M191.793 208.500 L 187.400 213.000 191.900 208.607 C 194.375 206.191,196.400 204.166,196.400 204.107 C 196.400 203.818,195.874 204.320,191.793 208.500 M231.293 206.000 C 231.293 206.770,231.375 207.085,231.476 206.700 C 231.576 206.315,231.576 205.685,231.476 205.300 C 231.375 204.915,231.293 205.230,231.293 206.000 M266.934 211.200 C 266.934 212.850,267.005 213.525,267.091 212.700 C 267.178 211.875,267.178 210.525,267.091 209.700 C 267.005 208.875,266.934 209.550,266.934 211.200 M224.500 211.476 C 224.885 211.576,225.515 211.576,225.900 211.476 C 226.285 211.375,225.970 211.293,225.200 211.293 C 224.430 211.293,224.115 211.375,224.500 211.476 M202.987 216.100 L 200.600 218.600 203.100 216.213 C 204.475 214.899,205.600 213.774,205.600 213.713 C 205.600 213.417,205.205 213.778,202.987 216.100 M218.909 219.200 C 218.909 220.190,218.987 220.595,219.082 220.100 C 219.178 219.605,219.178 218.795,219.082 218.300 C 218.987 217.805,218.909 218.210,218.909 219.200 M178.900 232.697 C 180.385 232.774,182.815 232.774,184.300 232.697 C 185.785 232.620,184.570 232.557,181.600 232.557 C 178.630 232.557,177.415 232.620,178.900 232.697 M214.700 232.698 C 216.735 232.771,220.065 232.771,222.100 232.698 C 224.135 232.625,222.470 232.566,218.400 232.566 C 214.330 232.566,212.665 232.625,214.700 232.698 M288.400 235.533 C 288.400 236.010,288.564 236.400,288.765 236.400 C 289.171 236.400,289.111 235.377,288.678 234.945 C 288.525 234.792,288.400 235.057,288.400 235.533 M205.334 241.600 C 205.334 243.250,205.405 243.925,205.491 243.100 C 205.578 242.275,205.578 240.925,205.491 240.100 C 205.405 239.275,205.334 239.950,205.334 241.600 M194.528 243.600 C 194.528 245.030,194.601 245.615,194.689 244.900 C 194.778 244.185,194.778 243.015,194.689 242.300 C 194.601 241.585,194.528 242.170,194.528 243.600 M283.734 249.715 C 283.891 250.160,283.763 250.516,283.393 250.658 C 283.067 250.783,282.800 251.086,282.800 251.332 C 282.800 251.577,283.198 251.380,283.684 250.893 C 284.423 250.154,284.480 249.926,284.026 249.504 C 283.579 249.090,283.527 249.128,283.734 249.715 M279.009 256.612 C 277.954 257.609,277.160 258.493,277.245 258.578 C 277.425 258.757,278.975 257.415,280.370 255.872 C 281.881 254.201,281.128 254.610,279.009 256.612 M274.460 261.042 C 274.162 261.378,273.999 261.732,274.095 261.829 C 274.192 261.926,274.598 261.644,274.998 261.202 C 275.397 260.761,275.561 260.407,275.362 260.415 C 275.163 260.424,274.757 260.705,274.460 261.042 M247.346 270.487 C 247.240 270.659,247.613 270.800,248.176 270.800 C 248.739 270.800,249.200 270.631,249.200 270.425 C 249.200 269.981,247.626 270.034,247.346 270.487 " stroke="none" fill="#1ca8d5" fill-rule="evenodd"></path><path id="path4" d="M203.690 115.923 C 200.063 121.245,202.227 132.171,206.900 132.128 C 207.615 132.121,213.870 132.007,220.800 131.874 C 235.370 131.595,236.680 131.690,238.285 133.148 C 238.923 133.727,240.244 134.815,241.222 135.567 C 243.259 137.134,245.970 140.456,246.447 141.970 C 246.626 142.537,247.061 144.260,247.415 145.800 C 247.769 147.340,248.296 149.140,248.586 149.800 C 249.506 151.890,249.566 152.330,248.998 152.802 C 248.596 153.135,248.545 153.529,248.812 154.231 C 249.034 154.816,249.036 155.579,248.816 156.159 C 248.615 156.686,248.533 157.199,248.632 157.299 C 249.359 158.026,249.019 161.231,248.126 162.069 C 246.893 163.228,247.182 167.140,248.672 169.444 C 250.099 171.650,249.172 171.948,240.265 172.149 C 235.983 172.245,232.961 172.479,232.706 172.734 C 232.406 173.034,231.937 172.981,231.113 172.555 C 229.541 171.742,230.069 172.779,232.269 174.823 C 235.309 177.650,241.896 185.173,243.017 187.100 C 243.432 187.815,243.914 188.400,244.086 188.400 C 245.289 188.400,244.176 195.117,242.700 196.765 C 241.424 198.190,241.230 198.859,242.400 197.800 C 244.445 195.950,242.907 198.299,240.500 200.703 C 237.119 204.080,236.048 204.827,234.976 204.558 C 234.356 204.403,233.933 204.642,233.406 205.447 L 232.684 206.549 231.995 204.787 L 231.306 203.026 231.353 205.540 C 231.399 208.001,231.365 208.087,229.715 209.627 C 228.789 210.492,228.181 211.200,228.365 211.200 C 228.548 211.200,229.416 210.421,230.294 209.468 C 231.572 208.083,231.963 207.853,232.256 208.316 C 232.765 209.124,238.402 209.581,243.490 209.227 C 248.974 208.846,249.231 208.613,248.986 204.252 C 248.886 202.464,248.950 200.370,249.129 199.600 C 249.344 198.674,249.261 197.523,248.884 196.200 C 247.757 192.238,247.777 191.666,249.058 191.394 C 249.686 191.261,250.519 190.978,250.909 190.767 C 251.948 190.203,251.982 190.461,252.126 200.200 C 252.231 207.267,252.261 206.597,252.279 196.800 C 252.291 190.090,252.323 184.293,252.350 183.919 C 252.434 182.766,254.943 181.861,257.316 182.128 C 258.462 182.257,260.030 182.227,260.800 182.063 L 262.200 181.764 260.400 181.281 C 259.410 181.016,257.925 180.740,257.101 180.667 C 254.833 180.468,254.904 180.114,257.274 179.802 C 259.793 179.470,262.480 177.888,264.388 175.615 C 265.127 174.733,266.046 173.912,266.429 173.791 C 266.813 173.669,267.232 173.295,267.361 172.959 C 267.545 172.477,267.405 172.410,266.697 172.643 C 266.204 172.805,264.000 172.934,261.800 172.930 C 259.600 172.925,258.610 172.985,259.600 173.062 C 265.984 173.562,265.053 175.335,258.462 175.230 C 253.026 175.144,251.781 174.236,251.382 170.066 L 251.165 167.800 251.749 169.338 C 252.352 170.930,253.851 172.800,254.524 172.800 C 254.735 172.800,254.456 172.445,253.904 172.010 C 252.285 170.737,252.039 168.684,252.020 156.319 C 252.008 148.626,251.851 144.474,251.543 143.722 C 248.139 135.420,243.841 130.899,237.400 128.843 C 234.115 127.794,219.457 126.955,211.800 127.376 C 208.047 127.583,207.253 127.518,206.400 126.937 L 205.400 126.255 206.162 127.128 C 206.793 127.850,206.818 128.000,206.308 128.000 C 205.969 128.000,205.401 127.556,205.046 127.014 C 204.230 125.769,204.230 125.449,205.045 125.762 C 205.551 125.956,205.615 125.858,205.345 125.305 C 205.155 124.917,205.016 122.215,205.035 119.300 C 205.055 116.385,205.055 114.000,205.035 114.001 C 205.016 114.001,204.411 114.866,203.690 115.923 M170.542 127.618 C 166.506 127.889,164.808 128.219,162.100 129.255 C 158.671 130.568,155.685 132.727,156.493 133.310 C 156.854 133.570,156.803 133.612,156.315 133.456 C 155.529 133.204,153.203 135.683,151.957 138.100 C 150.950 140.054,151.298 139.992,153.641 137.800 C 154.700 136.810,155.821 136.000,156.134 136.000 C 156.446 136.000,156.949 135.702,157.251 135.338 C 157.553 134.975,158.970 134.130,160.400 133.462 L 163.000 132.247 174.200 132.116 C 187.780 131.959,187.307 132.030,190.569 129.651 L 193.211 127.725 187.506 127.464 C 180.895 127.162,176.764 127.199,170.542 127.618 M216.200 127.977 C 217.527 128.252,217.187 128.315,214.200 128.348 C 211.743 128.375,210.790 128.265,211.200 128.000 C 211.921 127.534,214.013 127.525,216.200 127.977 M110.004 163.513 C 109.992 199.691,110.056 201.983,111.051 201.157 C 111.749 200.579,112.800 201.355,112.800 202.449 C 112.800 202.862,112.983 203.200,113.208 203.200 C 113.443 203.200,113.509 202.777,113.364 202.200 C 113.226 201.650,113.268 201.199,113.457 201.198 C 125.393 201.123,129.305 200.538,128.981 198.877 C 128.909 198.505,128.751 196.807,128.630 195.105 L 128.411 192.011 130.025 191.187 C 131.698 190.334,131.893 190.076,132.135 188.400 C 132.607 185.134,133.029 188.950,133.229 198.299 L 133.459 209.000 133.429 196.104 C 133.408 186.641,133.524 183.161,133.866 183.030 C 134.122 182.932,136.945 182.724,140.140 182.569 L 145.948 182.287 147.118 183.457 L 148.288 184.627 148.088 198.830 C 147.873 214.117,147.937 214.718,150.262 219.300 C 150.735 220.231,151.522 220.978,151.105 220.100 C 150.950 219.775,150.355 218.390,149.686 216.800 C 148.125 213.087,147.769 207.705,149.168 208.971 C 150.417 210.101,166.250 209.462,167.271 208.241 C 167.657 207.778,167.986 207.130,168.001 206.800 C 168.035 206.059,169.995 203.606,169.998 204.300 C 170.002 205.231,170.719 204.807,171.129 203.632 C 171.538 202.459,175.606 197.731,180.542 192.693 C 186.288 186.829,189.518 186.058,193.082 189.700 C 197.176 193.885,196.900 195.486,191.029 201.587 C 187.618 205.132,187.478 205.323,190.113 202.833 C 193.992 199.168,194.518 199.856,191.299 204.383 C 190.915 204.924,190.825 205.228,191.100 205.059 C 191.452 204.844,191.600 205.070,191.600 205.825 C 191.600 206.741,191.689 206.824,192.210 206.392 C 193.941 204.955,192.874 206.630,190.507 209.065 C 184.738 214.998,184.872 215.128,190.800 209.350 C 198.161 202.175,198.961 201.627,202.200 201.534 C 203.906 201.485,204.165 201.420,203.096 201.308 C 201.755 201.168,201.657 201.086,202.195 200.548 C 202.915 199.828,202.606 199.080,200.520 196.500 C 199.115 194.761,197.829 194.331,196.880 195.280 C 196.507 195.653,196.400 195.519,196.400 194.676 C 196.400 193.436,194.894 190.000,194.350 190.000 C 194.151 190.000,194.082 189.468,194.197 188.817 C 194.328 188.073,194.132 187.145,193.669 186.317 C 192.846 184.847,192.290 182.115,192.754 181.828 C 192.920 181.726,194.207 182.995,195.615 184.649 C 197.023 186.303,199.351 188.666,200.788 189.900 C 202.952 191.758,202.780 191.530,199.789 188.571 C 195.409 184.240,193.345 181.736,192.753 180.036 C 192.310 178.765,192.302 178.762,191.706 179.612 C 191.094 180.486,183.806 180.669,182.472 179.844 C 180.772 178.794,183.143 176.400,185.882 176.400 C 187.713 176.400,189.985 173.889,189.070 172.877 C 188.141 171.851,188.222 171.340,189.588 169.615 C 190.241 168.790,190.961 167.628,191.187 167.034 C 191.413 166.439,191.787 166.068,192.017 166.210 C 192.629 166.589,193.534 165.692,194.414 163.835 C 195.413 161.726,196.558 160.400,197.380 160.400 C 197.739 160.400,198.759 160.029,199.648 159.575 C 200.729 159.024,201.639 158.833,202.394 158.999 C 203.016 159.135,203.631 159.073,203.763 158.860 C 203.904 158.631,206.768 158.499,210.768 158.536 C 214.900 158.575,217.508 158.451,217.467 158.217 C 217.430 158.006,218.537 157.700,219.926 157.538 C 223.224 157.153,227.879 154.274,226.500 153.473 C 226.335 153.377,221.970 153.206,216.800 153.092 L 207.400 152.885 214.400 153.278 C 218.250 153.495,221.564 153.829,221.765 154.021 C 222.787 154.998,219.565 155.362,209.731 155.381 L 199.661 155.400 197.531 157.499 C 194.758 160.231,193.319 161.272,193.952 160.090 C 194.192 159.642,194.826 158.944,195.362 158.538 C 195.898 158.132,197.283 156.630,198.439 155.200 C 200.263 152.944,200.053 153.103,196.855 156.400 C 194.828 158.490,192.607 160.964,191.919 161.897 C 191.231 162.830,190.224 163.885,189.682 164.241 C 188.890 164.760,188.804 164.963,189.247 165.270 C 189.653 165.551,189.581 165.592,188.979 165.424 C 188.527 165.299,187.807 165.461,187.379 165.785 C 186.903 166.146,185.681 166.379,184.233 166.387 C 182.932 166.394,181.970 166.503,182.095 166.629 C 182.504 167.037,186.890 166.870,187.331 166.429 C 187.567 166.193,188.021 166.000,188.339 166.000 C 188.658 166.000,187.685 166.810,186.178 167.800 C 183.644 169.464,182.582 169.815,180.676 169.617 C 180.278 169.575,179.692 169.758,179.373 170.022 C 177.395 171.664,174.791 167.321,175.384 163.368 C 175.601 161.922,176.400 160.779,176.400 161.915 C 176.400 162.088,176.895 162.773,177.500 163.437 C 178.105 164.101,178.393 164.364,178.141 164.022 C 177.035 162.525,176.000 160.300,176.000 159.421 C 176.000 157.666,175.592 157.062,174.965 157.888 C 174.668 158.280,174.420 158.974,174.413 159.430 C 174.400 160.235,172.891 162.000,172.215 162.000 C 170.835 162.000,168.702 165.696,169.548 166.620 C 170.284 167.423,170.413 170.730,169.736 171.407 C 168.828 172.315,150.531 172.140,149.415 171.213 C 148.677 170.600,148.676 170.688,149.540 164.915 C 149.836 162.941,149.627 162.400,148.567 162.400 C 148.475 162.400,148.400 164.299,148.400 166.619 C 148.400 172.014,147.833 172.759,143.642 172.871 L 141.000 172.941 143.800 173.171 L 146.600 173.400 145.077 174.300 C 144.240 174.795,143.430 175.201,143.277 175.202 C 143.125 175.204,142.550 175.435,142.000 175.715 C 138.611 177.445,134.499 177.620,132.470 176.121 C 130.930 174.983,129.809 172.533,130.508 171.834 C 130.925 171.418,130.967 170.467,130.702 167.409 C 130.405 163.985,130.451 163.386,131.075 162.457 C 131.660 161.587,131.770 160.663,131.697 157.236 C 131.640 154.574,131.773 152.873,132.066 152.521 C 132.317 152.218,132.653 149.952,132.813 147.485 C 133.029 144.146,133.108 146.117,133.125 155.200 C 133.137 161.910,133.195 168.300,133.254 169.400 C 133.313 170.500,133.461 163.660,133.583 154.200 C 133.705 144.740,133.777 136.943,133.743 136.874 C 133.708 136.804,133.275 138.112,132.780 139.781 C 131.846 142.926,131.843 142.929,129.200 143.373 C 128.650 143.465,127.045 143.554,125.633 143.570 C 122.785 143.603,122.477 143.901,125.129 144.058 C 126.066 144.113,127.051 144.419,127.317 144.738 C 127.876 145.408,128.874 152.077,128.470 152.451 C 128.094 152.801,112.219 153.183,111.689 152.855 C 111.408 152.681,111.158 148.397,110.969 140.481 C 110.429 117.933,110.016 127.804,110.004 163.513 M169.491 128.692 C 168.661 128.779,167.401 128.777,166.691 128.689 C 165.981 128.600,166.660 128.529,168.200 128.531 C 169.740 128.533,170.321 128.605,169.491 128.692 M251.553 146.300 C 251.506 147.775,251.501 147.780,251.224 146.600 C 250.958 145.464,251.031 144.800,251.424 144.800 C 251.521 144.800,251.579 145.475,251.553 146.300 M201.700 152.687 C 202.305 152.778,203.295 152.778,203.900 152.687 C 204.505 152.595,204.010 152.520,202.800 152.520 C 201.590 152.520,201.095 152.595,201.700 152.687 M121.692 157.442 C 123.451 157.090,126.000 158.842,126.000 160.402 C 126.000 161.800,124.992 161.990,117.524 161.996 C 111.499 162.000,111.375 161.949,112.100 159.736 L 112.603 158.200 114.996 158.140 C 116.627 158.099,117.508 157.890,117.764 157.485 C 118.058 157.019,118.388 156.977,119.289 157.291 C 119.922 157.512,121.003 157.579,121.692 157.442 M251.493 165.700 C 251.409 166.635,251.340 165.870,251.340 164.000 C 251.340 162.130,251.409 161.365,251.493 162.300 C 251.577 163.235,251.577 164.765,251.493 165.700 M164.000 162.800 C 163.571 163.077,164.005 163.189,165.524 163.194 C 166.839 163.198,167.553 163.048,167.400 162.800 C 167.085 162.290,164.788 162.290,164.000 162.800 M201.030 163.231 C 200.115 163.637,199.114 163.814,198.630 163.656 C 197.098 163.155,195.823 163.361,195.672 164.133 C 195.552 164.748,195.655 164.799,196.313 164.447 C 197.415 163.857,199.269 164.733,198.966 165.700 C 198.821 166.161,198.959 166.400,199.368 166.400 C 199.710 166.400,200.237 166.985,200.539 167.700 C 200.842 168.415,201.474 169.343,201.945 169.762 C 202.415 170.181,202.800 170.937,202.800 171.442 C 202.800 173.019,216.269 187.582,222.240 192.460 C 223.142 193.197,224.492 194.651,225.240 195.691 C 225.988 196.731,226.733 197.586,226.897 197.591 C 227.436 197.607,223.647 192.923,222.528 192.190 C 219.961 190.508,213.267 183.243,213.843 182.764 C 214.280 182.402,214.400 182.442,214.400 182.951 C 214.400 183.308,214.580 183.600,214.800 183.600 C 215.913 183.600,213.635 179.181,211.743 177.672 C 211.005 177.082,210.400 176.369,210.400 176.087 C 210.400 175.806,210.130 175.471,209.800 175.345 C 209.470 175.218,209.200 174.864,209.200 174.557 C 209.200 174.251,209.042 174.000,208.849 174.000 C 208.655 174.000,208.271 173.454,207.994 172.786 C 207.718 172.119,207.102 171.264,206.625 170.886 C 205.214 169.768,202.337 165.241,202.474 164.354 C 202.578 163.682,202.867 163.891,204.129 165.551 C 206.343 168.464,213.335 175.600,213.975 175.600 C 214.275 175.600,213.818 175.089,212.960 174.466 C 212.102 173.842,210.709 172.537,209.865 171.566 C 209.021 170.594,207.401 168.755,206.265 167.479 C 205.129 166.202,203.840 164.567,203.400 163.846 L 202.600 162.536 201.030 163.231 M150.685 163.245 C 151.001 163.561,151.460 163.570,152.265 163.277 C 153.387 162.868,153.382 162.863,151.820 162.832 C 150.660 162.808,150.358 162.918,150.685 163.245 M120.255 169.800 C 120.382 170.130,120.717 170.400,121.000 170.400 C 122.703 170.400,121.822 171.604,120.087 171.648 C 114.922 171.778,112.700 171.660,112.273 171.233 C 111.548 170.508,112.678 170.013,115.076 170.006 C 116.218 170.003,117.264 169.820,117.400 169.600 C 117.789 168.970,119.996 169.125,120.255 169.800 M191.568 172.838 C 192.209 173.094,192.675 173.085,192.948 172.812 C 193.231 172.529,192.927 172.408,191.980 172.425 C 190.683 172.449,190.658 172.474,191.568 172.838 M194.800 172.800 C 194.800 173.020,195.160 173.200,195.600 173.200 C 196.040 173.200,196.400 173.020,196.400 172.800 C 196.400 172.580,196.040 172.400,195.600 172.400 C 195.160 172.400,194.800 172.580,194.800 172.800 M286.957 173.033 C 287.091 173.381,287.203 173.876,287.206 174.133 C 287.214 174.756,287.986 173.549,287.994 172.900 C 287.997 172.625,287.711 172.400,287.357 172.400 C 286.935 172.400,286.798 172.618,286.957 173.033 M234.200 173.600 C 234.020 174.168,234.128 174.400,234.573 174.400 C 234.949 174.400,235.200 174.746,235.200 175.267 C 235.200 176.089,235.141 176.074,234.045 174.978 C 233.002 173.935,232.953 173.774,233.545 173.324 C 234.433 172.648,234.494 172.674,234.200 173.600 M240.800 174.967 C 240.800 175.739,241.569 175.942,242.980 175.544 C 243.911 175.280,244.337 175.377,245.005 176.005 C 245.471 176.442,246.329 176.800,246.913 176.800 C 247.498 176.800,248.656 177.132,249.488 177.537 C 250.319 177.942,251.763 178.617,252.695 179.037 C 253.628 179.457,254.393 179.916,254.395 180.057 C 254.405 180.598,253.072 180.792,252.517 180.331 C 252.126 180.007,251.716 179.973,251.268 180.230 C 250.900 180.440,250.060 180.598,249.400 180.581 C 248.740 180.564,246.203 180.516,243.762 180.475 C 239.779 180.408,239.216 180.307,238.262 179.487 C 236.776 178.210,236.848 176.751,238.431 176.051 C 239.107 175.751,239.757 175.257,239.873 174.953 C 240.151 174.230,240.800 174.240,240.800 174.967 M149.482 176.093 C 150.411 176.934,162.356 176.867,163.383 176.014 C 163.897 175.587,164.000 175.614,164.000 176.175 C 164.000 176.597,164.179 176.737,164.482 176.549 C 165.632 175.839,167.200 175.985,167.200 176.803 C 167.200 177.242,166.940 177.600,166.623 177.600 C 166.305 177.600,165.810 177.923,165.523 178.318 C 164.592 179.597,162.107 180.882,161.316 180.494 C 160.922 180.300,158.980 180.249,157.000 180.381 C 152.363 180.689,143.238 180.574,142.878 180.202 C 142.725 180.045,143.500 179.140,144.600 178.191 C 145.700 177.242,146.848 176.201,147.151 175.876 C 147.819 175.160,148.524 175.226,149.482 176.093 M177.034 176.823 C 182.195 180.374,181.647 184.408,175.123 190.908 C 172.965 193.058,171.200 194.943,171.200 195.098 C 171.200 195.252,172.455 194.133,173.989 192.611 C 176.706 189.914,178.492 189.055,176.034 191.627 C 175.355 192.337,174.800 193.066,174.800 193.246 C 174.800 193.425,174.260 194.125,173.600 194.800 C 172.940 195.475,172.400 196.102,172.400 196.193 C 172.400 196.284,170.870 197.891,169.000 199.766 C 167.130 201.640,165.600 203.449,165.600 203.787 C 165.600 204.124,165.330 204.400,165.000 204.400 C 164.670 204.400,164.400 204.589,164.400 204.820 C 164.400 205.415,161.869 206.400,160.339 206.400 C 156.858 206.400,152.922 202.856,154.131 200.810 C 154.571 200.065,154.800 198.790,154.800 197.088 C 154.800 193.512,155.142 192.130,156.200 191.437 C 157.089 190.854,157.107 190.873,157.129 192.464 C 157.141 193.355,157.252 194.185,157.376 194.309 C 157.499 194.432,157.600 193.244,157.600 191.668 L 157.600 188.802 160.500 185.751 C 162.095 184.073,164.390 181.659,165.600 180.388 C 170.076 175.683,173.724 174.546,177.034 176.823 M217.210 179.089 C 218.855 180.787,220.245 182.257,220.300 182.355 C 220.355 182.453,220.475 182.458,220.567 182.366 C 220.778 182.155,214.936 176.000,214.524 176.000 C 214.357 176.000,215.566 177.390,217.210 179.089 M281.559 181.203 C 278.369 181.509,275.890 182.364,278.124 182.388 C 278.768 182.395,279.142 182.570,279.000 182.800 C 278.864 183.020,278.403 183.200,277.976 183.200 C 277.549 183.200,277.200 183.380,277.200 183.600 C 277.200 183.820,277.725 184.000,278.367 184.000 C 280.217 184.000,280.800 184.386,280.800 185.609 C 280.800 186.982,281.212 187.152,283.906 186.891 C 285.548 186.732,286.181 186.840,286.781 187.382 C 287.648 188.167,287.705 187.991,288.182 183.100 L 288.407 180.800 286.503 180.856 C 285.457 180.887,283.231 181.043,281.559 181.203 M222.600 184.800 C 223.683 185.900,224.660 186.800,224.770 186.800 C 224.880 186.800,224.083 185.900,223.000 184.800 C 221.917 183.700,220.940 182.800,220.830 182.800 C 220.720 182.800,221.517 183.700,222.600 184.800 M245.345 186.600 C 245.218 186.930,245.316 187.200,245.563 187.200 C 246.064 187.200,248.789 188.888,248.792 189.200 C 248.793 189.310,248.365 189.598,247.842 189.841 C 246.676 190.381,245.600 189.872,245.600 188.780 C 245.600 188.267,245.327 188.000,244.800 188.000 C 243.814 188.000,243.749 186.986,244.700 186.432 C 245.613 185.900,245.613 185.900,245.345 186.600 M225.200 187.464 C 225.200 187.682,225.695 188.297,226.300 188.830 L 227.400 189.800 226.400 188.600 C 225.850 187.940,225.355 187.325,225.300 187.233 C 225.245 187.142,225.200 187.245,225.200 187.464 M151.651 188.141 C 152.393 188.438,153.355 188.808,153.789 188.962 C 154.776 189.314,154.146 189.794,151.869 190.424 C 149.665 191.034,148.246 189.514,149.680 188.080 C 150.261 187.499,150.034 187.492,151.651 188.141 M267.443 191.334 C 267.315 191.810,267.205 196.880,267.198 202.600 C 267.188 209.975,267.016 213.873,266.606 216.000 C 266.287 217.650,265.924 219.540,265.797 220.200 C 265.622 221.115,265.712 221.020,266.178 219.800 C 266.513 218.920,266.791 217.705,266.794 217.100 C 266.797 216.495,266.980 216.000,267.200 216.000 C 267.435 216.000,267.600 214.595,267.600 212.586 C 267.600 209.192,267.605 209.175,268.480 209.643 C 269.574 210.228,276.031 210.210,282.113 209.603 C 284.581 209.357,286.960 209.121,287.400 209.078 C 288.154 209.005,288.203 209.255,288.249 213.400 C 288.276 215.820,288.487 219.870,288.718 222.400 C 289.052 226.068,289.088 224.162,288.897 213.000 C 288.765 205.300,288.707 197.039,288.768 194.643 L 288.879 190.286 287.940 190.595 C 286.419 191.094,270.154 191.332,268.840 190.874 C 267.810 190.515,267.649 190.568,267.443 191.334 M230.420 193.021 C 231.399 194.133,232.281 194.981,232.381 194.907 C 232.480 194.833,231.679 193.923,230.601 192.886 L 228.640 191.000 230.420 193.021 M205.600 194.200 C 206.795 195.410,207.863 196.400,207.973 196.400 C 208.083 196.400,207.195 195.410,206.000 194.200 C 204.805 192.990,203.737 192.000,203.627 192.000 C 203.517 192.000,204.405 192.990,205.600 194.200 M170.033 195.940 C 168.198 198.076,168.006 198.429,169.392 197.113 C 170.255 196.296,170.879 195.549,170.780 195.454 C 170.681 195.359,170.345 195.578,170.033 195.940 M232.833 195.700 C 232.925 195.755,233.540 196.250,234.200 196.800 L 235.400 197.800 234.430 196.700 C 233.897 196.095,233.282 195.600,233.064 195.600 C 232.845 195.600,232.742 195.645,232.833 195.700 M211.000 200.000 C 212.750 201.760,214.271 203.200,214.381 203.200 C 214.491 203.200,213.150 201.760,211.400 200.000 C 209.650 198.240,208.129 196.800,208.019 196.800 C 207.909 196.800,209.250 198.240,211.000 200.000 M228.568 199.700 C 229.409 200.745,230.177 201.600,230.275 201.600 C 230.592 201.600,228.917 199.426,227.963 198.600 C 227.455 198.160,227.728 198.655,228.568 199.700 M238.131 198.910 C 238.756 199.119,239.644 199.119,240.269 198.910 C 241.162 198.613,240.985 198.554,239.200 198.554 C 237.415 198.554,237.238 198.613,238.131 198.910 M148.687 203.900 C 148.595 204.505,148.520 204.010,148.520 202.800 C 148.520 201.590,148.595 201.095,148.687 201.700 C 148.778 202.305,148.778 203.295,148.687 203.900 M112.416 204.570 C 112.130 205.104,111.875 206.229,111.848 207.070 L 111.800 208.600 117.800 208.722 C 121.100 208.790,124.777 208.728,125.971 208.585 L 128.142 208.325 126.591 206.862 C 125.043 205.403,125.032 205.400,121.868 205.518 C 118.366 205.648,114.545 205.022,113.568 204.158 C 113.017 203.670,112.869 203.723,112.416 204.570 M207.855 204.600 C 208.780 206.179,208.800 206.203,208.800 205.711 C 208.800 205.479,208.429 204.864,207.976 204.344 L 207.153 203.400 207.855 204.600 M110.154 206.176 C 110.032 206.492,110.103 207.056,110.312 207.428 C 110.610 207.961,110.681 207.838,110.645 206.853 C 110.595 205.469,110.484 205.315,110.154 206.176 M185.634 206.953 L 184.669 208.200 185.813 207.112 C 186.443 206.514,186.877 205.953,186.779 205.865 C 186.680 205.777,186.165 206.267,185.634 206.953 M182.175 210.100 L 181.000 211.400 182.300 210.225 C 183.512 209.130,183.784 208.800,183.475 208.800 C 183.406 208.800,182.821 209.385,182.175 210.100 M208.095 209.901 C 207.876 210.529,206.763 212.203,205.622 213.621 L 203.548 216.200 205.554 214.046 C 207.462 211.997,209.085 209.351,208.680 208.947 C 208.577 208.844,208.313 209.273,208.095 209.901 M238.633 213.097 C 237.731 213.569,237.299 213.605,236.738 213.254 C 235.310 212.362,233.200 212.832,233.200 214.043 C 233.200 214.459,233.020 214.800,232.800 214.800 C 232.580 214.800,232.400 214.530,232.400 214.200 C 232.400 213.241,230.823 213.488,230.435 214.508 C 230.245 215.008,229.619 215.669,229.045 215.976 C 228.470 216.284,228.000 216.775,228.000 217.068 C 228.000 217.365,227.570 217.600,227.024 217.600 C 226.487 217.600,225.942 217.770,225.813 217.979 C 225.381 218.678,221.946 220.814,221.599 220.599 C 221.410 220.483,221.142 220.570,221.004 220.793 C 220.552 221.525,222.896 221.493,231.600 220.646 C 235.230 220.292,239.640 220.000,241.400 219.996 C 245.576 219.987,246.369 219.768,246.091 218.703 C 245.943 218.140,246.022 217.967,246.337 218.161 C 246.978 218.557,246.950 215.683,246.300 214.283 C 245.693 212.977,245.328 212.941,244.126 214.070 C 243.340 214.808,243.200 214.838,243.200 214.270 C 243.200 213.901,242.924 213.600,242.587 213.600 C 242.251 213.600,241.871 213.330,241.745 213.000 C 241.458 212.253,240.165 212.294,238.633 213.097 M271.623 213.577 C 270.841 214.359,270.719 214.376,270.129 213.786 C 269.597 213.254,269.399 213.235,268.983 213.671 C 268.424 214.259,267.580 217.846,267.920 218.187 C 268.163 218.429,282.488 218.053,283.900 217.767 C 284.958 217.553,285.118 216.421,284.100 216.354 C 283.715 216.328,283.220 216.266,283.000 216.215 C 282.780 216.164,282.328 216.094,281.995 216.061 C 281.662 216.027,281.210 215.595,280.991 215.100 C 280.766 214.591,280.303 214.248,279.927 214.311 C 279.560 214.371,279.146 214.236,279.007 214.011 C 278.680 213.482,276.000 213.472,276.000 214.000 C 276.000 214.220,275.820 214.400,275.600 214.400 C 275.380 214.400,275.200 214.130,275.200 213.800 C 275.200 213.470,274.975 213.198,274.700 213.195 C 274.425 213.192,273.812 213.085,273.337 212.958 C 272.763 212.804,272.189 213.011,271.623 213.577 M210.867 215.100 C 210.030 215.935,209.904 216.136,210.582 215.553 C 211.252 214.977,212.160 214.307,212.600 214.065 C 213.040 213.823,213.168 213.619,212.885 213.612 C 212.601 213.605,211.693 214.275,210.867 215.100 M152.506 216.270 C 151.860 217.662,152.455 218.400,154.225 218.400 C 155.781 218.400,156.377 217.774,155.183 217.395 C 154.727 217.250,154.189 216.697,153.987 216.166 C 153.514 214.922,153.119 214.949,152.506 216.270 M133.680 216.200 C 133.680 216.640,133.824 217.450,134.000 218.000 C 134.254 218.792,134.320 218.833,134.320 218.200 C 134.320 217.760,134.176 216.950,134.000 216.400 C 133.746 215.608,133.680 215.567,133.680 216.200 M207.375 218.668 C 206.759 219.476,206.459 220.011,206.709 219.856 C 207.221 219.540,208.953 217.200,208.675 217.200 C 208.576 217.200,207.991 217.861,207.375 218.668 M219.139 220.000 C 219.009 220.550,218.768 221.360,218.602 221.800 C 218.345 222.484,218.400 222.469,218.978 221.694 C 219.350 221.195,219.591 220.385,219.515 219.894 C 219.381 219.030,219.368 219.033,219.139 220.000 M196.185 222.900 L 194.200 225.000 196.300 223.015 C 197.455 221.923,198.400 220.978,198.400 220.915 C 198.400 220.617,198.029 220.949,196.185 222.900 M152.339 222.600 C 152.937 223.669,153.588 224.401,155.005 225.600 C 155.949 226.398,154.939 225.158,152.073 222.000 C 151.973 221.890,152.093 222.160,152.339 222.600 M243.983 225.927 C 241.399 227.882,239.386 229.690,240.319 229.217 C 240.825 228.961,241.725 228.321,242.319 227.796 C 242.914 227.271,243.940 226.387,244.600 225.833 C 246.180 224.506,245.780 224.567,243.983 225.927 M263.000 226.800 C 262.659 227.460,262.469 228.000,262.579 228.000 C 262.689 228.000,263.059 227.460,263.400 226.800 C 263.741 226.140,263.931 225.600,263.821 225.600 C 263.711 225.600,263.341 226.140,263.000 226.800 M160.000 228.996 C 160.000 229.270,162.449 230.484,162.632 230.301 C 162.719 230.214,162.162 229.844,161.395 229.478 C 160.628 229.112,160.000 228.895,160.000 228.996 M110.109 230.009 C 110.076 230.453,110.218 230.713,110.424 230.585 C 110.879 230.304,110.927 229.200,110.485 229.200 C 110.312 229.200,110.143 229.564,110.109 230.009 M166.000 231.582 C 166.330 231.805,166.945 231.991,167.367 231.994 C 168.390 232.002,168.071 231.773,166.600 231.444 C 165.724 231.248,165.562 231.285,166.000 231.582 M232.200 231.600 C 231.111 231.877,231.093 231.907,232.000 231.925 C 232.550 231.935,233.360 231.789,233.800 231.600 C 234.786 231.176,233.866 231.176,232.200 231.600 M173.700 232.298 C 175.845 232.370,179.355 232.370,181.500 232.298 C 183.645 232.226,181.890 232.167,177.600 232.167 C 173.310 232.167,171.555 232.226,173.700 232.298 M209.000 232.373 C 207.680 232.504,211.370 232.552,217.200 232.481 C 223.030 232.409,228.070 232.292,228.400 232.222 C 229.486 231.989,211.455 232.129,209.000 232.373 M288.400 233.376 C 288.400 234.133,288.580 234.864,288.800 235.000 C 289.042 235.149,289.200 234.604,289.200 233.624 C 289.200 232.731,289.020 232.000,288.800 232.000 C 288.580 232.000,288.400 232.619,288.400 233.376 M188.100 232.691 C 188.925 232.778,190.275 232.778,191.100 232.691 C 191.925 232.605,191.250 232.534,189.600 232.534 C 187.950 232.534,187.275 232.605,188.100 232.691 M194.600 240.200 C 194.600 243.568,194.735 246.240,194.900 246.138 C 195.065 246.036,195.200 243.364,195.200 240.200 C 195.200 237.036,195.065 234.364,194.900 234.262 C 194.735 234.160,194.600 236.832,194.600 240.200 M255.821 236.729 L 253.442 239.400 255.551 237.400 C 257.286 235.755,258.801 233.907,258.314 234.029 C 258.251 234.044,257.129 235.259,255.821 236.729 M143.800 236.800 C 144.659 237.680,145.452 238.400,145.562 238.400 C 145.672 238.400,145.059 237.680,144.200 236.800 C 143.341 235.920,142.548 235.200,142.438 235.200 C 142.328 235.200,142.941 235.920,143.800 236.800 M287.867 237.467 C 287.448 237.885,287.555 239.600,288.000 239.600 C 288.220 239.600,288.400 239.060,288.400 238.400 C 288.400 237.157,288.319 237.015,287.867 237.467 M285.200 245.376 C 285.200 246.267,285.826 246.444,285.892 245.572 C 285.924 245.148,285.781 244.800,285.575 244.800 C 285.369 244.800,285.200 245.059,285.200 245.376 M235.200 246.800 C 234.376 247.064,234.341 247.126,235.000 247.154 C 235.440 247.173,236.070 247.013,236.400 246.800 C 237.101 246.347,236.614 246.347,235.200 246.800 M284.700 246.631 C 284.535 246.797,284.400 247.299,284.400 247.747 C 284.400 248.335,284.521 248.439,284.838 248.122 C 285.078 247.882,285.213 247.380,285.138 247.007 C 285.062 246.633,284.865 246.464,284.700 246.631 M180.800 247.200 L 167.800 247.417 180.600 247.502 C 188.340 247.554,193.637 247.434,194.000 247.200 C 194.330 246.987,194.420 246.851,194.200 246.898 C 193.980 246.945,187.950 247.081,180.800 247.200 M207.700 247.476 C 208.085 247.576,208.715 247.576,209.100 247.476 C 209.485 247.375,209.170 247.293,208.400 247.293 C 207.630 247.293,207.315 247.375,207.700 247.476 M214.522 247.499 C 216.899 247.570,220.679 247.569,222.922 247.498 C 225.165 247.427,223.220 247.369,218.600 247.369 C 213.980 247.370,212.145 247.428,214.522 247.499 M283.326 249.500 C 283.189 249.885,283.004 250.335,282.915 250.500 C 282.826 250.665,282.943 250.800,283.176 250.800 C 283.409 250.800,283.600 250.429,283.600 249.976 C 283.600 249.523,283.780 249.264,284.000 249.400 C 284.220 249.536,284.400 249.457,284.400 249.224 C 284.400 248.534,283.596 248.741,283.326 249.500 M281.568 252.700 C 281.255 253.305,280.775 254.038,280.500 254.329 C 279.542 255.342,280.008 255.629,281.000 254.636 C 281.550 254.086,282.000 253.394,282.000 253.098 C 282.000 252.802,282.216 252.344,282.480 252.080 C 282.766 251.794,282.793 251.600,282.548 251.600 C 282.321 251.600,281.880 252.095,281.568 252.700 M276.076 258.845 C 275.348 259.527,274.841 260.174,274.949 260.283 C 275.058 260.391,275.795 259.832,276.587 259.040 C 278.346 257.280,277.919 257.117,276.076 258.845 M272.246 262.625 C 272.114 262.969,271.837 263.146,271.630 263.019 C 271.424 262.891,271.142 262.970,271.004 263.193 C 270.620 263.815,271.980 263.677,272.629 263.029 C 273.282 262.375,273.360 262.000,272.843 262.000 C 272.646 262.000,272.378 262.281,272.246 262.625 M260.800 268.000 C 260.800 268.220,261.070 268.400,261.400 268.400 C 261.730 268.400,262.000 268.220,262.000 268.000 C 262.000 267.780,261.730 267.600,261.400 267.600 C 261.070 267.600,260.800 267.780,260.800 268.000 M258.400 268.800 C 258.400 269.020,258.895 269.187,259.500 269.172 C 260.475 269.147,260.509 269.105,259.800 268.800 C 258.707 268.331,258.400 268.331,258.400 268.800 M254.800 269.600 C 254.800 269.820,255.160 270.000,255.600 270.000 C 256.040 270.000,256.400 269.820,256.400 269.600 C 256.400 269.380,256.040 269.200,255.600 269.200 C 255.160 269.200,254.800 269.380,254.800 269.600 M152.400 270.494 C 152.400 270.662,156.030 270.800,160.467 270.800 C 164.903 270.800,168.435 270.702,168.315 270.582 C 167.972 270.238,152.400 270.152,152.400 270.494 M170.600 270.400 C 169.124 270.664,169.194 270.691,171.500 270.743 C 172.938 270.776,174.000 270.630,174.000 270.400 C 174.000 269.961,173.049 269.961,170.600 270.400 M175.500 270.289 C 176.215 270.378,177.385 270.378,178.100 270.289 C 178.815 270.201,178.230 270.128,176.800 270.128 C 175.370 270.128,174.785 270.201,175.500 270.289 M183.600 270.500 C 183.600 270.665,184.320 270.800,185.200 270.800 C 186.080 270.800,186.800 270.665,186.800 270.500 C 186.800 270.335,186.080 270.200,185.200 270.200 C 184.320 270.200,183.600 270.335,183.600 270.500 M191.600 270.431 C 191.600 270.639,194.052 270.800,197.200 270.800 C 200.280 270.800,202.800 270.665,202.800 270.500 C 202.800 270.335,200.280 270.169,197.200 270.131 C 194.002 270.092,191.600 270.221,191.600 270.431 M211.000 270.400 C 204.830 270.608,205.284 270.637,215.900 270.715 C 223.490 270.770,227.600 270.659,227.600 270.400 C 227.600 269.982,223.389 269.982,211.000 270.400 M228.185 270.376 C 228.491 270.871,247.091 270.900,247.397 270.406 C 247.510 270.223,243.177 270.050,237.768 270.021 C 231.199 269.987,228.017 270.104,228.185 270.376 M249.200 270.365 C 249.200 270.565,249.656 270.680,250.213 270.618 C 251.732 270.452,251.917 270.000,250.467 270.000 C 249.770 270.000,249.200 270.164,249.200 270.365 " stroke="none" fill="#1278b7" fill-rule="evenodd"></path></g></svg>